<?xml version="1.0" encoding="UTF-8" standalone="no"?>
<svg xmlns="http://www.w3.org/2000/svg" xml:space="preserve" viewBox="0 0 90 90">
  <path d="M44.471 14.486c.111-.279-.103-.237-.121-.291-.121.488.171.295.121.291zm-1.221 4.715-.054.752.099-.643zm-.808 2.78c.031.004.063.013.091.013.194 0 .343-.09.467-.167l.074-.045-.296-.567-.017-.057.177-.631c-.286-.078-.485.043-.645.142l-.074.044.302.58c-.229.873-.449 1.862-.709 2.396.334-.232.44-1.016.63-1.708zm.288-.695-.158.548.152-.541.006-.007zm-.06-.44v-.003l.052-.181-.052.184zm-2.088 4.425c-.031.048-.044.061-.063.087-.03.095-.075.225-.158.444.168-.105-.069.541.221-.531zm-.063.087c.147-.465-.202.267 0 0zm-.652 2.155.099-.645c-.113.104-.312.64-.295.421-.153.643-.04.539.196.224zm.029.65.062-.331c-.049.047-.088.126-.062.331z"/>
  <path d="m40.087 27.134-.13.699c.079-.07.181-.045.069-.317.072.084.029-.077.061-.382zm.043 1.468.068-.214.138-1.184zm-2.194 3.861c.004 0 .031-.082.027-.082.011 0-.034-.159-.045-.158 0 0 .03.06.033.12.007.06-.015.12-.015.12zm-1.117-.041c.296-.134-.411-.218-.097-.303-.488.029-.903.148-1.276.254.397-.061.823-.051 1.373.049zm-2.001.107c.198-.035.403-.092.628-.155-.213.032-.42.079-.628.155zm3.55.008c-.041-.009-.143-.047-.208.003-.002.007.171.101.174.092.009-.03.021-.062.034-.095zm-.184.192.109.006c.003-.009.007-.018.01-.026l-.011.025c-.034 0-.071-.003-.108-.005z"/>
  <path d="m38.338 32.633-.005-.001c-.01.025-.02.051-.03.078l.035-.077zm.038-.12-.009.023c.02.005.027.002.009-.023zm.252.203.008-.216-.059.124zm-2.52-.022c-.324.089-.679.099-1.081.118.431.032.877.048 1.3.042.058-.061.243-.171-.219-.16zm1.603.035c-.023.004-.052.009-.073.012.045.016.081.022.073-.012zm-6.576.163c.003-.012.007-.022.013-.034l-.078-.001c.022.011.042.021.065.035zm5.265-.002c.323.034.517-.016.701-.078-.242.022-.499.038-.773.042-.027.029-.033.046.072.036zm-2.687-.259c.17.04.361.072.563.1-.165-.059-.502-.149-.563-.1zm3.815.059c.016-.003.032-.006.049-.01-.107-.04-.094-.019-.049.01zm0 0c-.166.029-.296.079-.427.123.196-.018.38-.041.538-.071-.041-.014-.08-.034-.111-.052z"/>
  <path d="M30.371 33.156c.261.095 1.653.21 1.027.378-.984.105-.808-.053-1.288-.142.409.218-1.25.339-1.032.665l.863-.126c.018.051-.295.136-.056.18.056-.18.906-.355 1.642-.173.721-.142.242-.726-.392-1.048-.023.079-.022.152-.764.266zm.777-.298 1.508.007-.103.028.305-.026c-.349-.026-.599-.095-1.06-.231-.511.093-.615.162-.65.222zm7.764-.359c-.021.006-.043.018-.063.019-.006.038.019.027.063-.019zm-1.369.793-1.208.11.617.162-.032-.101c.688.031.538-.092.623-.171zm-6.612-.53.158-.208-.696.298zm-1.571.042.056-.18-.415.113zm10.828 24.723c-.063.127-.123.247-.177.354.101-.118.215-.254.334-.395-.05.015-.104.028-.157.041zM22.38 32.799c.562-.018.079-.021 0 0zm2.153.848c.026-.048.071-.079.131-.098-.071.024-.124.053-.131.098zm-2.153-.848c-.166.004-.4.01-.786.021.324-.007.633-.001.928.009-.115-.012-.168-.022-.142-.03z"/>
  <path d="M69.52 37.339c-.275.306-.783.765-.473.539l.811-.633-.223.117c.535-.567.398-.645 1.504-1.447.801-.513.713-.276 1.021-.491.041 0 .164-.078.471-.338l1.816-1.317-1.328.664c.387-.449 1.49-1.092 0-.352.309-.149.658-.347 1.041-.586-.23-.042-.596-.073-1.025-.096-.023-.048-.053-.098-.082-.152-.092-.158-.246-.273-.424-.318-.213-.056-.309-.075-.998.31-.1-.167-.26-.286-.453-.334-.234-.06-.658.041-1.484.425-1.23-.007-2.248-.012-2.523-.067-.561.116-1.123.148-1.732.149-.016-.037-.027-.059-.041-.083-.094-.159-.248-.276-.426-.32-.291-.073-.42-.013-1.135.431-.359-.244-1.771-.11-2.361-.468.26.118-.094.149-.551.169-.742-.251-1.66-.563-1.879-.655-.061-.038-.127-.066-.195-.082-.326-.083-.5.016-1.465.625-.021-.007-.041-.018-.062-.023-.137-.035-.301-.032-.59.065-.141-.009-.277-.016-.42-.026-.527-.032-1.068-.067-1.617-.102-.061-.003-.121-.004-.182-.006-.018-.004-.031-.009-.049-.013-.758-.19-1.773-.444-2.078-.542-.008-.057-.016-.121-.021-.184-.004-.051-.01-.096-.01-.156-.002.007-.004.016-.004.025-.035-.297-.07-.625-.102-.908-.213-1.936-.213-1.936-.305-2.098-.092-.156-.244-.271-.422-.314-.133-.034-.227-.037-.352.006-.037-.109-.076-.219-.113-.329.047-.225.094-.447.137-.655.555-2.645.555-2.645.4-2.915-.092-.158-.244-.275-.42-.32-.283-.075-.309-.081-1.311.522-.068-.195-.137-.391-.203-.586 0-.042.002-.087.002-.13.023-2.083.023-2.083-.09-2.276-.09-.161-.242-.278-.42-.325-.107-.028-.188-.041-.279-.022.078-.235.156-.471.23-.687.922-2.745.922-2.745.74-3.058-.092-.159-.244-.275-.422-.322-.26-.065-.391-.013-.822.247-.021-.054-.053-.109-.088-.171-.047-.082-.113-.15-.188-.206-.055-.108-.109-.219-.166-.333-.764-1.535-.881-1.767-.912-1.821-.09-.155-.238-.269-.414-.314-.186-.051-.326-.016-.467.05.043-.24-.004-.323-.08-.456-.09-.155-.236-.268-.409-.314-.287-.078-.481.04-.668.155l-.095.057.309.599-.311.185c-.124-.214-.085-.408-.081-.43-.051.234-.565 1.637-.939 2.664-1.06 2.897-1.06 2.897-.87 3.223.09.158.243.273.419.32.255.066.313.081 1.367-.541-.316.364-.633.725-.925 1.059-.801.917-1.423 1.63-1.918 2.204l.131-.228.031-.43c-.013.181-.272.658-.29.807-1.168 1.361-1.519 1.845-1.544 2.142-.068.156-.147.374-.231.658.112-.194.227-.428.275-.433.007.016.014.032.022.048.004.049-.002.136-.025.285.023-.079.044-.152.062-.219.006.01.011.021.018.031.091.16.249.278.426.323.339.085.388.099 2.993-1.481-.506.532-1.021 1.072-1.489 1.562-1.499 1.567-2.479 2.591-3.107 3.284 0-.028 0-.047.002-.079-.002.026-.004.056-.007.085-.273.301-.479.541-.633.734l.05-.303c-.123.215-.312.639-.419.636.029.032.097-.012.17-.062-.282.419-.206.555-.07.789.038.066.089.123.146.171-.003.021-.006.041-.009.062-.008.051-.016.101-.024.149-.008.048-.002.054-.003.079-.001.041-.001.069-.001.069s.01-.021.025-.054c.008-.018.018-.037.028-.059.017-.041.035-.084.052-.128.007-.018.014-.034.021-.051.063.04.129.072.2.091.034.007.066.01.098.015-.057.08-.11.147-.147.186.076-.022.153-.063.236-.125.019-.015.04-.035.059-.049.367-.04 1.142-.484 4.705-2.68 1.585-.975 3.729-2.296 4.261-2.53.096-.009.191-.037.281-.089.055-.032.104-.073.145-.117.055.037.113.064.176.086.068.254.145.523.227.814l.143-.25c.15.538.125.671.156.934.514.501-.482-1.488.043-1.051-.055.26.045.718.199 1.243-.531-.079-1.596.456-12.074 6.817-2.564 1.557-5.507 3.341-7.585 4.557.487-.562 1-1.151 1.456-1.674 3.859-4.423 3.859-4.423 3.54-4.975-.062-.108-.156-.196-.266-.256.063-.025.143-.05.267-.07-.179.009-.307.013-.396.013-.011-.003-.021-.009-.032-.012-.038-.009-.073-.018-.109-.022.132-.048.52-.133-.097-.191.285-.037.541-.05.783-.06-.261-.021-.514-.048-.751-.082.014.006.022.009.034.013l.006-.001v.003c.062.023.083.038.011.025-.003.003-.021.004-.029.004-.01.027-.037.051-.066.074-.419-.035-.066-.05.066-.074.003-.009.015-.019.018-.029l-.006-.001-1.453.123c.309.023.693.013 1.375-.016-.213.18-.833.271-.613.44-.231.119-.539.291-.971.545-.086.018-.124.037-.095.056-.636.377-1.515.909-2.767 1.673-.9.55-2 1.221-2.811 1.699.068-.304.14-.623.203-.905.518-2.301.596-2.645.505-2.873.148-.009.317-.026.494-.039-.031 0-.06.003-.09 0 .107-.189-.152-.19-.508-.142-.077-.104-.181-.184-.3-.231.432-.083.885-.137 1.341-.099-.427-.269-.215.034-.878-.279.577.392-2.377.01-1.454.419-.227-.121-.432-.175-.639-.208.159-.212.187-.506.047-.749-.091-.158-.243-.275-.419-.32-.296-.076-.326-.079-2.029.938-.04.003-.081.005-.129.01.04 0 .072.001.107.001-.042.026-.082.05-.125.076-.177-.015-.368-.028-.579-.037.104.012.289.025.571.041-.111.066-.226.136-.351.21-.086.051-.176.105-.267.159-.555.042-1.088.075-1.307.13-.708-.037.152-.107-.326-.2-.017.001-.706.171-.69.171-.108-.054-.338-.102-.588-.146-.153-.095-.31-.193-.463-.288.037-.004.066-.007.108-.012l-.124.001c-.418-.262-.795-.501-.909-.583-.082-.076-.183-.132-.293-.161-.284-.074-.376-.019-.975.339-.115.068-.227.136-.308.183-.203-.147-.359-.263-.419-.313-.085-.083-.191-.143-.309-.174-.284-.073-.46.035-.705.184-.053.032-.105.064-.133.081l.181.362c-.097.001-.19.001-.279.004.122.088.244.174.366.259l-.187.107c.034.058.056.096.144.175l-.091.355c.19.05.333.016.479-.054.271.199.695.504 1.376.994.584.421 1.299.936 1.508 1.095.213.272.474.265.813.119.146.111.297.221.45.332.442 1.31.446 1.319.493 1.402.081.139.214.245.366.299.136.447.153.477.19.541.091.158.242.272.418.317.176.047.31.023.453-.041.199.229.495.57.942 1.082.466.533 1.043 1.195 1.134 1.308.094.129.231.221.388.259.299.075.462-.029.898-.304.023-.013.045-.027.066-.041.304.115.782.277 1.548.536.042.037.084.073.126.108-.271.438-.194.574-.055.815.091.158.257.281.434.328.162.041.284.069.763-.146.566.632 1.814 1.383 2.646 1.985.042.362.067.406.122.5.093.159.248.276.427.32.219.053.375.006.582-.112.188.258.468.643.89 1.223.333.456.647.889.824 1.132-.082.172-.152.348-.212.529-.053.092-.086.195-.092.301-.1.356-.173.721-.241 1.085-.006.007-.012.016-.019.023-3.429 4.276-3.423 4.285-3.122 4.807.091.157.24.271.415.316.217.059.283.071 1.129-.412-.03.157.126.119.298-.005-.028.211-.045.408-.04.565-.159.078-.229.243-.279.438-1.522 1.213-1.389 1.459-1.161 1.852.071.123.177.22.303.284-.143.348-.082.453.025.64.025.043.053.081.086.117-.218.611-.53 1.447-.768 2.084-.195.523-.349.938-.472 1.272.001-.006.001-.012.001-.018-.001.01-.003.018-.004.027-.475 1.298-.446 1.355-.298 1.611.004.007.01.013.015.021-.004.019-.008.036-.012.055-.069.326-.143.659-.14 1.196l-.246.188c-.088.294-.11.574-.146.829-.037.258-.088.498-.271.836-.121.247-.245.538-.374.868.658-.355 2.084-1.371 3.589-2.428.752-.526 1.555-1.088 2.318-1.6.547-.358 1.087-.691 1.589-.963-.712-.141 1.115-.5.962-.892.193.015.528-.136.25.192 1.002-.859 1.727-.98 2.27-1.787.195.015-.125.312.027.295.07-.083.278-.33.434-.35.152-.016-.097.197-.235.361 1.083-.794.973-1.187.844-1.538.654-.254.918-.47 1.181-.946.262-.043.657-.17 0 .348.393-.258 2.44-1.519 2.313-1.783.162-.025.547-.361.63-.461.437-.295.675-.456.91-.615.143-.095.264-.181.461-.332.007.015.012.029.019.043.093.159.247.274.425.318.206.051.351.015.566-.104.697.642.848.692 1.043.801.045.05.086.095.137.149.502.552 1.127 1.237 1.23 1.359.092.124.225.215.375.253.215.057.334.038.639-.135.002.001.002.001.004.001-.035.271-.074.553-.107.816-.355 2.695-.355 2.695-.209 2.949.09.156.242.272.418.317.32.085.32.08 2.68-1.323.07-.041.143-.084.215-.128.004.006.008.012.012.016-.051.145-.365.138.172.548.068.091.266.202.527.334-.57.76-.5.895-.336 1.183.094.157.248.274.424.319.268.069.338.081 1.551-.643.275.18.521.374.697.586-.127-.234-.25-.465.244-.224.277.176.58.469.896.771-.006 2.13-.002 2.143.113 2.342.09.157.242.272.42.319.281.073.336.084 1.947-.872.646.383 1.57.969 2.021 1.16-.09.538-.055.601.039.767.092.157.244.271.422.315.066.018.123.026.18.026.137 0 .266-.056.465-.173.326.281.668.532.998.749-.121-.349-.262-.727-.404-1.104.025-.01.051-.021.076-.036.322-.19.432-.605.242-.93-.061-.101-.148-.182-.248-.239.004-.003.008-.005.012-.008.312-.207.396-.63.189-.941-.072-.108-.152-.18-.234-.227.445-2.223.438-2.24.285-2.504-.09-.159-.242-.274-.418-.321-.225-.059-.301-.076-1.143.408-.088-.272-.104-.303-.133-.355-.033-.056-.076-.105-.123-.149-.281-.971-.391-1.218-.547-1.533-.15-.291-.295-.478-.439-.663-.041-.291.084-.107.125-.096-.047-.198-.088-.374-.127-.538.941-1.769.914-1.828.729-2.149-.092-.16-.244-.275-.422-.322-.244-.06-.342-.044-.838.252.121-.449.254-.929.365-1.327.016-.062.031-.116.047-.174.18-.285.203-.436.158-.573.479-1.73.461-1.765.312-2.023-.092-.156-.242-.271-.418-.316-.271-.07-.316-.076-1.656.719-.139-.467-.301-.936-.506-1.361.029.009.082.032.156.16-.422-.915-.635-2.098-.861-3.117-.057-.254-.115-.498-.176-.726-.035-.111-.066-.22-.098-.323-.014-.04-.027-.076-.049-.112-.002-.005-.004-.008-.008-.012.078-.262.135-.461.172-.616.008-.003.014-.004.021-.007.225-.13.344-.37.336-.611.496-.381 1.025-.786 1.576-1.203.016.005.027.009.035.021 2.713-2.046 5.51-3.835 8.074-5.721l-.449-.042c.307-.229.592-.447.869-.655.273-.106.451-.018-.186.438.225-.048.467-.279.652-.506.148-.2.412-.526.377-.546.916-.596.879-.448.594-.136zm2.644-2.017-.365.202c.459-.422.406-.313.365-.202zm-41.81 6.677c.001.015.003.029.004.044-.01-.009-.021-.018-.031-.027.011-.006.018-.011.027-.017zm2.233 2.215.022-.012-.064-.047c-.01-.015-.024-.033-.028-.039-.092-.161-.248-.278-.428-.322-.074-.017-.14-.025-.205-.02-.013-.141-.027-.287-.041-.434.09.002.178.005.254-.001.012.112.068.209.134.323.091.159.263.286.44.332.505.128.998-.059 9.722-5.4.977-.598 2.023-1.239 3.029-1.85-1.092.915-2.242 1.87-3.266 2.72-4.097 3.401-6.037 5.011-6.898 5.876-.016-.012-.033-.019-.049-.03-.149-.097-.295-.202-.442-.326-.069-.059-.157-.136-.215-.196-.049-.053-.098-.11-.146-.175-.263-.22-.585-.924-.74-.814.175.447-.074 1.06-.398 1.354-.289-.398-.557-.766-.681-.939zm16.864-13.711c.092.159.246.276.422.321.125.031.215.04.334.006.111.436.164.792.076.969.273.814.156-.317.428.497l-.055.257.234.15c.006.022.008.041.014.063-.096-.12-.23-.212-.377-.249-.465-.117-.572-.146-8.843 4.917-1.117.684-2.366 1.449-3.569 2.178 1.154-.923 2.384-1.896 3.523-2.798 4.584-3.628 6.789-5.39 7.793-6.347.007.013.012.025.02.036zm7.594 13.851-.004-.217c.443-.288.873-.567 1.291-.839-.654.539.184.42-1.023 1.138l.381-.659-.645.577zm-2.166 1.595c.025-.1.102-.078.197.026-1.715.936-4.73 2.728-10.229 6.056 2.124-1.38 4.292-2.78 6.343-4.104 2.078-1.344 3.949-2.554 5.635-3.648-.066.07-.131.133-.191.191-.064.062-.111.105-.188.168-.094.074-.188.147-.277.22-.369.28-.75.533-1.33.925.009.038.024.102.04.166zm1.34 8.863c.09.157.242.273.418.318.109.029.182.047.318.004-.645.385-1.43.855-2.391 1.432-.342.204-.701.419-1.061.634.26-.287.518-.575.764-.852.719-.801 1.314-1.468 1.812-2.027.073.374.093.411.14.491zm-4.912 1.469c.062.129.121.262-.02.227.008-.087.016-.163.02-.227zm.289.011c-.143-.108-.229-.167-.285-.194-.004-.112-.021-.173-.051-.231.605-.337 1.586-.931 3.266-1.966.078-.048.158-.098.24-.147-.51.573-1.037 1.162-1.51 1.689-.531.594-.977 1.092-1.365 1.527-.252-.283-.264-.486-.295-.678zm-3.287-4.352c-.014-.079-.039-.158-.082-.232-.018-.033-.043-.064-.066-.094 1.797-1.084 3.537-2.127 5.018-2.992l-.031.113c.141.037.211.055.518-.094.006.006.012.013.02.019-.543.312-1.375.821-2.709 1.65-.875.544-1.971 1.225-2.668 1.63zm7.144-3.17c-.02-.066-.055-.13-.098-.206-.057-.096-.141-.177-.234-.236.008-.005.016-.009.023-.015.078-.047.17-.104.262-.158.043.125.088.244.129.354-.029.092-.055.178-.082.261zm.178-.749c.027-.017.049-.028.07-.04-.01.032-.021.064-.029.096-.016-.017-.027-.039-.041-.056zm-.402 1.477c-.398 1.303-.371 1.36-.229 1.606.094.162.258.282.443.323.047.01.092.016.135.018.012.061.023.133.035.197-.475.288-1.059.646-1.801 1.102-.467.288-.99.611-1.496.92.275-.389.559-.785.812-1.142 1.183-1.652 1.802-2.517 2.101-3.024zm1.591 7.541c-.217-.063-.408.033-1.873.878.104-.062.207-.122.314-.187.621-.373 1.316-.79 1.986-1.188-.143.168-.286.332-.427.497zm1.317 3.226c-.059-.06-.127-.109-.201-.144.141-.084.277-.166.408-.244-.073.137-.143.265-.207.388zm.381-2.057c-.375.203-.943.542-1.863 1.1.33-.385.664-.77.969-1.121.236-.275.451-.523.656-.761.064.258.14.516.238.782zm-7.909-13.603c-4.064 2.486-8.614 5.271-12.343 7.491 2.854-1.933 6.187-4.144 9.197-6.142 10.6-7.035 14.289-9.548 15.441-10.678.02.007.035.019.055.023.32.081.441.006 1.381-.579.016.004.029.01.045.015.092.375.197.814.289 1.188.012.054.023.101.037.152-3.053 1.792-7.52 4.504-14.102 8.53zm.424-11.159c.004.033.01.07.012.102.018.238-.002.402-.043.456-.025-.089-.07-.205-.117-.324.064-.088.115-.167.148-.234zm-.207.308c.115.4.264.838.416 1.246.805-.012 1.533-.051 1.859-.038l-1.191-.089c.461-.006.936-.012 1.42-.018h.037c-.062.037-.125.073-.191.113-.023-.003-.043-.004-.074-.006l.074.006c-1.697 1.001-4.133 2.482-7.68 4.662-1.725 1.058-3.622 2.223-5.312 3.243.936-.783 1.922-1.602 2.839-2.363 5.211-4.326 7.166-5.965 7.803-6.756zm9.065.988-.17-.103c.488-.048.807-.057 1.062-.049-1.66.908-4.779 2.794-10.957 6.592-2.705 1.662-5.855 3.599-8.61 5.252 1.267-.914 2.606-1.873 3.896-2.797 7.3-5.226 10.534-7.576 11.89-8.77 1.01-.002 1.996-.027 2.889-.125zm-13.686 6.043c1.201-.737 2.48-1.522 3.727-2.282-1.859 1.348-3.85 2.771-5.61 4.031-4.705 3.368-7.394 5.295-8.902 6.458l-.106-.199c.007-.009.015-.019.022-.027l.416-.253c-.032-.05-.071-.092-.113-.132.035-.044.073-.092.106-.134.026-.011.052-.021.076-.035.188-.108.301-.293.33-.491.632-.833.8-1.15.776-1.376 1.381-.745 4.004-2.322 9.278-5.56zm-11.401 8.649c.01.008.02.014.031.021-.047.038-.093.076-.137.111.036-.045.071-.09.106-.132zm.439 1.885c1.508-.618 5.017-2.671 14.175-8.292-.916.607-1.824 1.211-2.705 1.796-5.654 3.752-9.427 6.276-11.94 8.015.661-1.128.63-1.241.47-1.519zm-1.611-.423c.018.095.069.184.128.286.025.044.055.085.088.121-.113.064-.244.14-.393.226-.023-.108-.043-.221-.062-.335.083-.103.16-.199.239-.298zm-1.968 8.336c-.007-.009-.013-.016-.02-.026.083-.227.155-.425.216-.596.112.039.215.092.21.195l-.031-.733c.087-.282.12-.45.117-.567.136.002.337-.121.476-.276-.057.046-.005-.142.081-.401 2.477-1.256 7.625-4.346 18.604-11.063 3.561-2.179 7.496-4.586 10.914-6.637-3.617 2.387-7.91 5.16-11.779 7.659-11.188 7.226-16.42 10.67-18.788 12.445zm27.719-16.617c-.1.148-.213.315-.396.489l-.119-.153c.173-.114.343-.225.515-.336zm-12.11 10.974c-.094-.125-.229-.218-.383-.256-.053-.013-.1-.015-.146-.016.141-.083.271-.159.395-.229.014.062.035.123.068.182.092.157.256.28.434.325.387.099.447.111 4.051-2.131.297-.185.621-.385.945-.585-.209.293-.418.585-.611.854-1.66 2.321-2.281 3.189-2.445 3.633-.377-.22-.793-.433-1.307-.7-.539-.504.207-.07.041-.289l-.447-.126c-.294-.322-.534-.589-.595-.662zm19.5-19.132.283.171c.053-.019.1-.036.143-.051.031-.018.059-.032.086-.047.057-.029.115-.054.186-.075.033-.01.068-.018.105-.026-.482.268-1.025.578-1.643.933-.049-.2-.092-.383-.131-.543.268-.067.21-.14.971-.362zm-14.169-1.842c-.035-.061-.08-.115-.133-.162.045.038.091.092.133.162zm-6.307-16.748c-.006.015-.012.032-.018.05l-.188.102c.043-.123.082-.235.113-.333l.093.181zm-.929 2.158c.325-.889.553-1.515.712-1.969.02.041.061.12.115.229-.07.396-.133.851-.348.864.235.26.325.648.393 1.091-.207.124-.441.266-.708.427-.162.096-.335.2-.51.305.117-.322.237-.651.346-.947zm-.262 4.489c.717-.82 1.292-1.479 1.757-2.017.053.082.111.161.174.24.018.329-.221-.215-.26-.021.248.244.414.577.572 1.162-.285.015-.779.314-3.181 1.777-.042.025-.083.05-.125.076.363-.417.729-.836 1.063-1.217zm-1.907 5.975c-.241.149-.494.306-.753.465.363-.381.73-.764 1.078-1.128 2.049-2.143 3.221-3.368 3.867-4.116.053.03.109.057.17.071.129.032.219.041.342.001.145.485.27.94.395 1.419-.002.229-.004.424-.002.58-.01-.001-.018-.007-.027-.009-.402-.101-.466-.119-5.07 2.717zm-5.028 8.174c2.006-1.217 4.221-2.562 6.164-3.721-1.157.925-2.395 1.904-3.54 2.811-6.285 4.975-8.169 6.506-8.594 7.224-.048-.053-.115-.118-.226-.207.096.095.162.171.21.233-.025.046-.047.09-.061.129-.102-.017-.223-.054-.31-.086-.006-.073-.013-.149-.02-.218-.155-1.677-.188-2.019-.244-2.176 1.538-.913 3.662-2.193 6.621-3.989zm-7.676.061c.33-.202.686-.419 1.044-.637-.415.479-.84.966-1.224 1.406-1.193 1.368-2.018 2.313-2.579 2.983-.111-.037-.227-.076-.349-.117-.032-.012-.065-.021-.097-.033-.506-.411-.914-.768-1.35-1.133.346.076.595-.051 4.555-2.469zm-6.675.671c-.539-.734.829.566.488-.087-.077.054-.346-.069-.67-.244-.156-.085-.326-.18-.493-.271-.007-.004-.013-.007-.021-.01.36-.216.774-.466 1.271-.768.533-.323 1.164-.703 1.698-1.02-.079.355-.164.732-.239 1.065-.488 2.162-.556 2.465-.463 2.686-.167-.134-.342-.27-.536-.415-.063-.141-.574-.633-.254-.561-.199-.081-.415-.112-.781-.375zm-.367.344c-.246-.078-.497-.166-.826-.326-.09-.045-.195-.105-.293-.158.177-.105.375-.222.602-.358.344.282 1.047.641 1.449.842-.114.153-.455.143-.932 0zm2.889-4.457c-.057.031-.119.066-.186.103l-.135-.034c.104-.021.211-.044.321-.069zm-.617.352c-.469.276-1.114.665-2.031 1.219-.687.416-1.523.921-2.146 1.287-.003-.012-.007-.023-.01-.034-.074-.249-.137-.46-.192-.645.324-.157.9-.501 2.095-1.218.19-.112.397-.237.604-.361l.344.022c-.013-.038.089-.062.216-.079-.153-.003-.305-.006-.45-.009.315-.186.619-.366.845-.496.147.001.297.006.453.021l.2.276c-.022-.082-.687-.158-.98-.07.222-.065.636.029 1.052.087zm-1.307 6.117c.015.006.026.015.041.02-.05-.063-.107-.117-.162-.179-.012-.007-.025-.016-.037-.023-.044-.05-.089-.102-.14-.159.059.062.12.118.177.183.097.059.195.117.295.179-.035.021-.065.036-.104.062-.021-.025-.047-.057-.07-.083zm9.116 8.073c-.01.033-.022.067-.033.103-.014-.032-.01-.086.001-.147.013.018.022.03.032.044zm5.06 10.392c.106-.164.354-.296.661-.412-.177.147-.393.29-.661.412zm1.416-.005c-.16.056-.107-.104.001-.329-.061.072-.118.143-.159.199-.453.19-.347-.091-.161-.421.167-.044.334-.089.497-.133.168-.335.309-.673.153-.772-.05.078-.171.199-.312.319.042-.09.063-.156.014-.156-.056.001-.132.134-.268.321l-.437-.088.015.147-1.547.85c-.835.989-1.449 2.011-2.995 3.271.266-.479-.137-.378-.277-.622.614-.071 1.185-.993 2.06-1.54-.457.285-.438.106-.353-.011l-1.344 1.285c-.099-.21-.418.085-.866.286.279.079.044.34-.329.647-.186.155-.406.32-.612.482-.052.041-.103.082-.152.12-.051.041-.068.059-.103.089-.059.055-.114.11-.161.164-.041-.064-.045-.155.003-.254.028-.053.054-.099.126-.162.11-.094.258-.202.449-.326-.127.038-.234.085-.327.139-.046.027-.088.056-.128.086l-.056.046c-.01.01-.016.019-.024.029-.059.077-.098.188-.156.313-.101.243-.327.582-.583.587.122-.091.189-.11.238-.24-.137.18-.402.377-.577.468-.178.095-.252.073-.13-.094l.108-.08c-.313.191-.752.498-1.267.915.042-.208.064-.4.053-.536.151-.088.331-.196.551-.328.335-.2.785-.469.928-.546.036-.014.071-.031.105-.05.325-.188.435-.604.247-.929-.035-.059-.079-.109-.128-.154 1.271-.683 3.596-2.057 8.038-4.74.031.04.064.077.103.11-.026.014-.048.025-.075.038l.078-.035c.077.064.167.114.266.141.058.015.106.027.163.027.076 0 .171-.023.325-.09-.152.233-.413.542-.66.831.279-.067.517-.124.667-.177l-1.001.903zm5.32-3.52c.003-.012.01-.02.014-.029.003.007.007.015.01.021l-.024.008z"/>
  <path d="M40.188 56.719c.078-.009.117.013.153.036.057-.084.035-.119-.153-.036zM26.409 32.661l.074-.007c-.033.001-.055.002-.074.007zm0 0-.647.059c.349-.016.474.031.65.064-.015-.044-.116-.104-.003-.123zm2.354.769c.059-.104-.19-.021-.468.01.156-.012.315-.018.468-.01zm-8.077-.461c.437.042-.007-.234.303-.163.121-.118-.524-.041-.865.048-.34.089-.412.188.562.115zm3.919.857c.259 0 .506-.007.649-.045-.139.002-.442.014-.649.045zm22.118-19.169-.381-.296c.062.14.18.411.154.541l.227-.245zm-13.895 9.055c0 .029.152-.083.183-.1-.057-.009-.224.128-.183.1zm-.514-.146-.191.053.122-.016zm-.271-.031.236-.115c-.08-.047-.284-.047-.239-.144-.254.204.12.089.06.209l-.057.05zm.47-.741.023-.023c-.006-.006-.012-.016-.015-.037-.099.077-.114.019-.008.06zm.023-.023c.029.028.075-.078 0 0zm-.158-.122.123-.013c.058-.05.047-.098.103-.112-.081-.013-.138.035-.226.125zm-.226.081.054-.001c.024-.021.03-.033-.054.001zm.054-.001c-.04.034-.128.09.045.004-.084.045 0 .007.071-.007l-.116.003zm.091.052c-.044.061-.061.118-.184.131.091.065.275-.068.184-.131zm-.551.657-.059.084.111-.028c-.054.013.033-.112-.052-.056zm.383-.999.088-.007c.03-.042.047-.098.133-.152-.061.032-.148.109-.221.159zm0 0-.131.01c.016.053.068.032.131-.01zm-.027.424-.273.032.012.015zm.056-.759.084-.02.153-.054zm-.017-.133c.126-.047.175-.142.257-.162-.041-.022-.156.007-.259.032.065-.001.071.037.002.13zm-.157-.099c.035-.001.093-.016.154-.031-.034 0-.081.009-.154.031zm.135.333-.153.12.009.021c.033-.025.122-.088.144-.141zm-.159.125.005-.004c-.008-.025-.014-.041-.017-.048.002.005.006.021.012.052zm.017.022-.002-.006c-.016.012-.02.017.002.006zm-.419.503c.126-.046.185-.131.352-.171-.111.028-.248.025-.352.171zm.378-.366-.15.012-.006.078c.043-.029.101-.077.156-.09zm-.219.017.069-.006.001-.027zm.035-.352c.055-.026.157-.068.131-.098-.086.019-.107-.003-.137-.023-.013.05-.013.092.006.121zm.154.042-.013.001c-.012.012-.015.017.013-.001zm-.352-.429.03-.016-.002-.006c-.008.005-.02.014-.028.022zm.171.41c-.018.042.031.032.09.015-.026-.007-.049-.019-.062-.038-.024.013-.041.022-.028.023zm.135-.339c-.028.032-.049.064-.068.095.046-.043.114-.117.068-.095zm.075.325.01-.001c.031-.03.013-.018-.01.001z"/>
  <path d="M31.935 22.163c-.031.001-.078.018-.12.029.021.006.047.009.079.006.011-.009.027-.024.041-.035zm-.929-.051c-.122-.025.021-.091.083-.174-.176.142-.335.072-.61.251l.137.006c-.043.028-.127.045-.157.086.157-.086.337-.107.202.044.146-.013.635-.347.893-.559-.068.038-.131.075-.253.073-.074.069-.129.238-.295.273zm.578-.362.042.123-.028.006.032.01c.012-.041.063-.095.166-.199-.097.008-.16.033-.212.06zm.199.192-.002.001c-.019.016-.031.025-.021.013h-.005c-.023.012-.045.022-.066.032.018-.051.041-.031.066-.032l.026-.013.002-.003-.153-.05c-.01.036.011.061.059.099-.179.082-.281.07-.444.21.05.059.167-.037.262-.041-.103-.08.111-.025.163-.156.041.003.06.018.077.031.01-.031.024-.064.045-.1l-.009.007v.002zm-.617 1.076c.013-.013.025-.019.037-.028-.026.006-.041.012-.037.028zm.448-.401c-.143.103-.244.179-.374.295.028-.006.099-.04.096-.004-.037.051-.08.048-.134.082.053-.012.151-.019.204-.116l-.027.006c.032-.077.207-.257.235-.263zm-.196-.144-.135-.04-.118.132.085-.054c-.004.07.097-.006.168-.038zm.242-.787.185-.093-.282.096zm.07-.188-.111.024-.046.062zm-5.599-5.227c-.047.016-.08.031-.078.041l.078-.041zm3.833 2.473c.125-.12.329-.286.154-.186l-.166.107c.048.01.039.041.012.079zm-2.119-1.409-.046.041c.064-.023.124-.045.178-.065-.041.006-.085.015-.132.024zm-2.685-2.096-.187.079c.029.043.102-.029.187-.079zm5.68 5.203c.049-.07.062-.113.058-.139-.076.094-.206.208-.058.139zm-3.173-5.281c.039 0 .077-.01.116-.038-.04.002-.079.015-.116.038z"/>
  <path d="M30.898 20.304c.057-.072.083-.129-.054-.095-.014.015-.019.025-.031.04.043.006.08.018.085.055zm-8.085-8.47c.004-.009.005-.015.011-.023-.02.018-.018.022-.011.023zm.517-2.289c.018 0 .034.015.05.026.002-.015-.011-.026-.05-.026zm6.309 11.008-.001-.003c-.029.027-.024.022.001.003zm1.764.56c-.002.013-.003.022-.004.031.03-.013.046-.026.004-.031zm-.05-.058c.011.012.01.029.005.048.009-.01.018-.018.023-.021-.006-.004-.015-.013-.028-.027zm-6.725-7.825c.003-.004.006-.009.011-.015-.082.026-.064.029-.011.015zm3.193 5.846.009-.002.004-.007zm-.178-.019c.235-.079.221-.042.191.01l.479-.301-.67.291z"/>
  <path d="M22.463 10.719c-.042.082-.112.086-.171.169.149-.115.203-.118.194-.013l-.038.029c.166.098.103.275.154.515l.144-.161c.01.054-.032.107-.057.16.27-.187-.073-.105.216-.32-.272.348.216.241-.119.609.045.053.168-.184.213-.131l-.086.105.139-.105c.01.054-.098.183-.181.262.002-.018-.044-.001-.06-.003-.077.147.151.083.127.131l.017-.102c.225.05.239.342.563.308l.068-.076c.234-.01-.013.159.153.224l-.022.01c.097-.04.164-.04.182.001-.117.044-.131.202-.266.244.253-.009.17-.041.53-.197l-.116.123c.141-.067.207-.116.289-.079-.153.037-.171.197-.365.257-.192.357.44-.031.06.357.415-.222.119-.271.224-.298.099-.122.313-.161.308-.091.024.05-.42.433-.333.531-.006-.012-.035.009-.041-.003-.066.111.187-.019.068.145.247-.14.035.072.329-.133l-.14-.048c.116 0 .494-.196.399.016-.063.035-.161.064-.218.076-.065.089.095.01.028.102-.296.202-.151-.073-.416.031-.101.119.292-.042-.043.158.43-.248.028.138.385-.01l-.177.12c.035-.007.134-.044.145-.019l-.253.125c.234-.079-.09.233.053.215-.087-.114.193-.176.286-.317.337-.018-.4.409-.203.513-.041-.004.048-.157.153-.178-.015.055-.053.145-.133.228.112.082.17-.143.311-.172-.189.186.125-.006.227-.006l-.18.125c-.03.203.399-.224.337-.015l-.284.121.105.015-.214.127c.197-.04.171.007.156.106.118-.099.336-.212.378-.158-.083.111-.187.093-.109.156-.125.057-.281.132-.136-.015-.063.032-.124.063-.186.094-.097.124.039.123.059.15-.001-.016 0-.035.022-.059l.328-.051c-.057.064-.122.084-.185.106.035.01.129-.028.168-.004-.155.089-.307.191-.408.188l.235.001c-.059.05-.141.173-.205.193-.048.117.386-.037.322.118.032-.015.065-.023.098-.019.016.098-.125.281.139.241l-.238.221c.104.034.297-.284.472-.225.139.032-.21.174-.268.251.162-.042.484-.139.312.075-.067.006-.04-.04-.074-.051l-.115.152c-.291.081-.237-.023-.414.162.528-.314.193.198.723-.114l-.086.106c-.002-.014-.034.001-.036-.011-.205.228.415-.174.4-.029-.019.058-.081.128-.158.143l.178-.001c.003.028-.092.078-.096.05l.114.092-.016.009c.093-.033.244-.07.31-.083-.059.074-.065.018-.126.064l.167-.01c-.122.11-.287.133-.293.076-.493.374.165-.025-.066.291l-.103-.023c-.277.218-.141.202-.288.381.088-.073.391-.417.564-.424-.028.044-.031.082.098.059-.189.111-.121.121-.082.162l-.252.144c.102.007.227-.07.357-.105.009.07-.178.196-.334.304.013.112.275-.244.384-.164-.052.132.081.126.285.13-.056.102-.159.079-.22.139l.228-.067c.002.014-.062.045-.094.061.101-.004.253-.14.357-.117.287-.141-.331.361.028.26-.062.06-.16.079-.253.14.267-.01.202.006.53-.063l-.124.168c.159-.163.422-.218.642-.259.081-.072.15-.133.183-.166l.191.023c-.035.035-.127.073-.242.117.025-.006.049-.012.071-.016-.073.087-.229.15-.384.205.043-.04.09-.082.135-.123-.167.062-.35.135-.494.222.032-.01.064-.011.086-.005-.045.017-.085.033-.108.051-.025.019.037-.003.11-.022l-.268.18.115-.057-.104.228c.335-.067.8-.219.998-.136-.227.079-.342.18-.588.314.238-.184-.174-.053-.164-.158-.005.054-.127.111-.173.123l.312.004c-.202.11-.133.114-.197.196.382-.249.32-.045.472-.057-.131.077-.274.139-.279.054-.257.24.519-.162.305.053-.012-.015.004-.035-.069-.004.141-.026.099.12-.029.162l-.012-.016c.014.136.182.338.528.168-.043.025-.415.209-.487.24l1.244-.427c-.299.142-.953.587-1.167.586-.027.05-.057.108.076.107.031-.041.394-.275.434-.265-.286.244-.147.142-.376.375.047-.062.518-.281.527-.229-.071.031-.446.25-.502.26l.504-.139c-.095.018-.381.202-.495.295.082-.059.042.097.103.101l.079-.103c-.002.157.692-.225.733-.095-.1.036-.587.276-.609.367.243-.098 1.167-.479 1.399-.471l-.12.092.194-.001c-.372.139-1.173.393-1.496.472-.079.101-.148.096-.099.156-.11.091-.207.066-.225.05l.007.199c.263-.152.333-.026.552-.155l-.37-.018c.262-.152.811-.317.825-.18-.092.086-.487.238-.575.29.1-.035.233.01.174.056l-.168.031c-.067.117.409-.094.195.121-.003.035-.301.265-.141.183.282-.209 1.218-.735 1.462-.832-.016.019-.217.292-.351.405-.215.174-.604.25-.789.399.074-.039.176-.065.21-.071-.047.062-.231.114-.167.153.276-.139.043.132.244-.098.108.015-.022.092.026.152.163-.119.626-.268.735-.254-.07.035-.153.098-.19.125.039.13-.048.262.011.372-.06.047-.109.143-.238.186.057-.012.156-.048.181-.018-.196.194-.078-.056-.33.15.159-.083.265-.033.39-.041.233-.149-.016-.136-.141-.129.333-.187.729-.298.947-.272.132.044-.194.16-.138.148.037.202.662-.183.5.092-.181.176-.42.241-.566.339-.121-.028.072-.188.035-.232l-.066.117c-.083.016-.165-.003-.118-.062-.165.153.124.305.021.536.084-.018.181-.021.255-.087l-.053-.023c.149-.135.28-.057.33-.155.152-.013.375-.06.324.072l-.232.152c.069-.041.114-.131.028-.111.125-.029-.258.306.078.159l.136-.15c.152-.015.447-.094.409.018.22-.168-.036 0 .214-.209-.322.241-.085-.18-.409.095.293-.234.087-.164.325-.386-.078.048-.139.11-.132.032-.025.01-.058.021-.078.026l.004-.007-.007.009c-.014.004-.016.006-.003.003-.027.034-.062.068-.104.098-.199.076-.246-.018-.357.006.019-.057.1-.038.174-.105l-.167.034c.173-.104.243-.257.391-.235l-.032-.076c.075-.1.082-.18-.013-.174.019-.056-.244.025-.089-.023l-.173-.053.044-.025c-.041-.124-.423-.066-.175-.373-.066-.013-.143-.021-.127-.113l.146-.098c-.08-.019.074-.231-.099-.164.385-.28-.04-.286-.013-.412l-.203.107c-.021-.064-.109-.091-.23-.12l-.175.103c-.181.018.037-.232-.037-.322.071-.031.068.004.037.045.336-.34-.432-.093-.199-.364-.08.009-.068-.023-.034-.066.002.001.006.003.013.001 0-.004-.001-.009-.004-.013.024-.028.051-.062.075-.089-.038.035-.067.066-.078.085-.016-.019-.055-.04-.117-.047l.184-.117c-.004-.001-.004-.004-.009-.004.054-.07-.104.025-.239.12-.039.001-.085.007-.137.022.294-.194-.149-.025.162-.24-.172.067-.206-.09-.553.079.043-.026.059-.045.071-.031.019-.056.039-.111-.073-.091l.234-.147-.368.103c.122-.127.198-.193.41-.25-.348.047-.158-.031-.495.032l.159-.082c-.024-.031-.264.032-.145-.06.256-.24-.165-.395.006-.743-.441.295.157-.203-.205-.013.103-.072.149-.133.261-.154-.162-.04.09-.246-.25-.146.103-.072.172-.067.231-.114-.028.004-.113.022-.053-.025.058-.046.099-.036.155-.048-.076-.091-.417.087-.735.257.12-.135.084-.149-.142-.069.093-.076.184-.167.256-.125-.004-.043.029-.301-.224-.162.058-.047-.009-.059-.043-.051-.029-.087-.01-.108-.078-.171l-.028.044c-.321.143-.104-.025-.175-.067l.031-.015c.136-.269-.14-.001.028-.285l-.184.115c-.412.221.167-.262-.036-.254l-.09.092c-.164.037.477-.443.501-.518.029-.031.065-.018.099-.019.169-.257-.254.127-.362.073.123-.094.349-.175.338-.25.09-.092-.528.082-.322-.149-.091.079-.183.156-.283.161-.071-.04.284-.396-.071-.26.023-.025.048-.044.073-.06-.111.003-.23-.07-.42.006.614-.434-.489-.102.102-.462l-.121-.127.063-.032c-.018-.119-.179-.063-.339-.007.026-.047.091-.066.123-.083.033-.208-.002-.206-.365-.133l.182-.133c-.128.041.171-.383-.134-.375.023-.012.061-.032.094-.04-.315-.003.29-.7-.427-.301l-.234.016c.032.158-.307.18-.384.305-.073-.021.118-.262.194-.225l-.028.031c.368-.216.02-.237.261-.397-.187-.229-.153-.606-.307-.845l-.249.221-.043-.089c.047-.066.188-.18.219-.115.129-.141-.197-.001-.256.039.026-.188.343-.186.324-.224l-.055-.032-.023.034c-.136.044-.253.126-.291.048.021-.082.147-.143.144-.168.02-.013.024-.026-.011-.031l-.052-.117-.179.197c-.135.035-.059-.1-.26.124.313-.342-.143-.466-.065-.59-.198.058-.243 0-.285-.086-.028.051-.247.247-.271.164.489-.361.111-.279.404-.608-.184.229-.202-.133-.458.203-.005-.083.171-.15.247-.282-.281.029-.109-.375-.312-.469-.061.051-.128.157-.246.205l.223-.345c-.056-.004-.363.282-.209.042-.042.054-.106.133-.143.13.009-.274-.188-.368-.35-.488-.172-.115-.313-.254-.213-.661-.065.151-.102.136-.137.111-.005.047-.134.145-.203.227l.081-.335c-.224.201-.146-.109-.35.092l.073-.001c-.274.205-.43.625-.729.938.316-.233-.245.548.214.226zm3.834 5.821c-.049.004-.192.042-.088-.037.228-.107.133-.031.088.037zm1.259 1.138c-.071.022-.051-.016.008-.081.025.009.029.031-.008.081zm3.52 3.225c-.003 0-.006.001-.01.003.052-.082.03-.052.01-.003zm-5.45-8.791-.035.049c-.076.004-.023-.019.035-.049z"/>
  <path d="M25.195 15.224v-.004l-.035.019zm3.504 5.41c.018-.032.047-.062.08-.088-.047.025-.082.054-.08.088zm2.799.709c.043-.026.102-.075.114-.06l-.08-.023c.024.02-.012.052-.034.083zm-.79 1.077c.028-.004.013.015.041.009l.086-.053c-.025-.029-.109-.012-.127.044zm.303-.727c-.156.097-.083.098-.032.119-.001-.001-.004-.003-.003-.006.227-.118.131-.114.035-.113zm-.022.125c.014.007.025.016.024.032.091-.047.01-.025-.024-.032zm.216-.74c-.031.041.21-.105.151-.059.215-.096-.313.023-.151.059zm-.701.949.189-.127-.171.07zm-.026-.377-.02.09c.033-.021.056-.023.076-.022-.013-.04.002-.103-.056-.068z"/>
  <path d="M30.595 21.746c-.007-.009-.027-.026-.061-.028.008.021.023.037.061.028zm-.197.233.031-.041-.01-.051zm-.338-1.029c-.072.031-.103.071-.062.082.056-.012.096-.001.155-.048l-.093-.034zm-.336.536c.031-.041.074-.067.134-.114l-.246.136.112-.022zm-.165-.161c-.072.032-.249.015-.187.089.071-.03.165.003.187-.089zm-.241-1.165.013.015.402-.225zm-1.11-.466c-.127.007-.084-.048-.338.12-.054.13.26-.119.178.019.105-.035.067-.113.16-.139zm-4.856-10.6-.074.143.055-.028zm-.332.291.184-.231-.202.174c.018 0 .054 0 .018.057zm2.966 7.468-.12.121.063-.032c.062-.047.06-.06.057-.089zm-.318-.644.002.015.215-.158zm-.617-.362c.003.028.07.022.074.05-.071-.022.204-.231-.074-.05zm46.64-2.564c.033.006-.043-.17-.049-.204-.031.059.069.251.049.204zm-.285.585-.021-.076.006.203zm-.164.131.041.063-.07-.253c-.07.075-.117.279-.213.224.168.279.125-.11.242-.034zm-.687-.495c-.008-.012-.014-.018-.023-.026-.006.007-.02.01-.043.013.066.108-.005.119.066.013zm-.024-.026c.043-.027-.072-.082 0 0zm-.156.035c-.047-.062-.104-.05-.109-.108-.031.085.014.145.1.238l.009-.13zm.049.312c-.02-.026-.031-.032-.008.057l.008-.057zm.012-.048c.035.089.01 0 .006-.074l-.018.123c.029.042.076.135.012-.049zm.173.149c.086-.095-.025-.292-.113-.197.063.048.121.067.113.197zm.504.42.08.07-.006-.114c.002.055-.117-.047-.074.044zm-1.023-.534c-.041-.031-.102-.048-.15-.137.027.063.102.153.145.229l.005-.092zm-.006.092-.006.136c.061-.015.045-.07.006-.136zm.477.305-.008-.274-.008.288zm-.866-.417-.041-.16.051.246zm-.144.106c-.039-.129-.146-.175-.158-.262-.033.044-.016.162.002.268.009-.067.052-.074.156-.006zm-.156.006c-.002.037 0 .084.021.159 0-.038-.012-.096-.021-.159zm.564.161c-.025-.035-.084-.125-.143-.149l.117.159.026-.01zm-.023.015-.002-.004c-.029.009-.051.015-.059.016.008-.002.025-.005.061-.012zm.029-.018-.006.003c.01.016.016.02.006-.003zm.5.438c-.035-.131-.117-.194-.137-.367.012.116-.006.257.137.367zm-.352-.396-.006.156.084.006c-.025-.045-.072-.104-.078-.162zm-.008.227.002-.07-.031-.003zm-.392-.037c-.023-.056-.061-.159-.1-.133.016.087-.012.109-.041.14.057.014.106.012.141-.007zm.066-.157-.002.013c.012.012.018.015.002-.013zm-.508.391-.018-.029-.005.001c.006.009.016.02.023.028z"/>
  <path d="M69.736 14.322c.047.018.041-.032.027-.092-.012.028-.027.05-.051.064.013.025.02.041.024.028zm-.369-.123c.033.026.068.047.102.063-.047-.045-.121-.109-.102-.063zm.375-.092v-.01c-.027-.031-.017-.014 0 .01zm0 0c0 .032.012.079.021.123.008-.022.014-.048.014-.08-.007-.01-.023-.028-.035-.043zm-.117.964c-.029.127-.096-.015-.184-.073.146.171.07.339.26.606l.006-.139c.029.044.047.127.088.156-.088-.155-.107-.339.047-.209-.014-.149-.35-.634-.57-.884.039.067.074.13.07.257.07.071.248.114.283.286zm-.371-.572.139-.056.004.028.014-.034c-.045-.009-.102-.058-.211-.156.001.103.029.165.054.218z"/>
  <path d="M69.523 14.368c.076.181.059.289.201.449.064-.056-.031-.171-.029-.272-.094.114-.02-.116-.16-.158.006-.044.021-.066.037-.085-.031-.007-.068-.021-.104-.04l.006.009h.002v.001c.018.019.027.031.016.022v.004c.012.025.02.047.029.067-.053-.013-.029-.04-.029-.067l-.016-.026-.002-.001-.064.167c.039.007.067-.016.113-.07zm1.071.539c-.012-.013-.018-.026-.025-.039.003.026.007.042.025.039zm-.098-.178c.051.04.041.083.072.139-.008-.054-.004-.154-.1-.212l.002.029c-.078-.035-.252-.218-.258-.247.098.149.168.253.277.389-.003-.028-.03-.101.007-.098zm-.463-.094-.053.136.133.121-.053-.087c.077.006.004-.097-.027-.17zm-.845-.21-.094-.185.092.285zm-.118.102-.09-.156.024.113zm-4.191 6.912-.066-.06c.031.04.058.066.066.06zm1.277-4.652c-.15-.089-.369-.243-.225-.098l.143.133c.002-.05.035-.051.082-.035zm-.871 2.556c.018.009.037.019.055.029-.043-.054-.082-.103-.119-.149.021.038.043.078.064.12zm-1.133 3.369.141.147c.033-.045-.063-.085-.141-.147zm3.678-7.257c-.08-.037-.129-.041-.16-.032.111.06.246.171.16.032zm-4.68 4.793c.016.038.041.07.076.096-.013-.037-.035-.07-.076-.096zm4.52-4.825c-.08-.044-.146-.059-.1.075.018.01.029.015.047.022.006-.044.016-.084.053-.097zm-6.154 10.929c-.01-.001-.016 0-.025-.003.021.015.025.012.025.003zm-2.387.102c-.004-.018.008-.036.016-.054-.018 0-.026.017-.016.054zm8.953-9.8-.002.001c.029.024.025.019.002-.001zm.453-1.901h.035c-.013-.029-.029-.044-.035 0zm-.033.025c-.008.007-.016.018-.031.034.012-.013.033-.015.055-.012-.014-.007-.022-.016-.024-.022zm-6.111 9.248c-.008-.001-.012-.003-.02-.006.051.072.047.053.02.006zm4.603-5.224-.006-.009-.006-.002zm.029.177c-.141-.205-.102-.202-.041-.188l-.424-.377.465.565z"/>
  <path d="M59.145 26.4c.045-.004.168.101.262.153l-.344-.01c.24.181-.076.167.16.329l-.016-.073c.252.235.693.303 1.061.535-.289-.266.594.115.191-.279.09.022.107.093.199.131-.141-.124-.154-.178-.045-.197l.037.031c.068-.2.268-.181.494-.314l-.191-.098c.051-.026.113 0 .172.007-.248-.218-.09.109-.367-.123.406.173.191-.295.635-.071.043-.063-.223-.111-.18-.176l.125.054-.137-.108c.051-.028.207.039.303.098-.018.004.01.047.012.063.168.029.051-.184.105-.175l-.107.019c.002-.244.285-.366.164-.68l-.094-.042c-.074-.229.16-.044.178-.232l.018.018c-.066-.082-.084-.148-.051-.182.078.101.238.059.318.176-.08-.249-.088-.155-.346-.452l.156.07c-.107-.114-.174-.161-.164-.255.084.137.244.093.361.263.402.053-.166-.422.328-.194-.344-.323-.301-.015-.359-.108-.148-.051-.252-.246-.182-.268.039-.041.549.247.619.125-.01.01.02.031.01.041.129.022-.076-.175.121-.123-.213-.187.059-.062-.232-.269l-.004.153c-.037-.112-.346-.405-.109-.392.055.047.113.13.145.181.107.029-.021-.096.09-.066.291.209-.023.176.16.392.146.054-.133-.268.168-.019-.379-.323.129-.081-.131-.372l.174.126c-.02-.032-.086-.114-.066-.135l.203.198c-.154-.198.254-.006.189-.139-.082.13-.232-.117-.4-.152-.127-.32.527.227.564-.006.008.041-.17.015-.225-.079.059-.007.158-.004.266.04.043-.142-.195-.108-.27-.234.244.11-.047-.117-.08-.216l.18.125c.207-.053-.35-.295-.125-.319l.211.225-.02-.108.193.157c-.104-.174-.049-.168.053-.194-.137-.073-.316-.237-.281-.301.135.035.154.143.188.042.098.098.223.218.033.137.055.045.1.098.154.143.15.042.104-.089.121-.12-.014.006-.033.013-.064.003l-.158-.297c.08.029.121.083.164.136-.002-.038-.072-.113-.061-.16.137.113.287.218.318.316l-.076-.227c.066.038.213.067.256.12.129 0-.166-.355.006-.356-.025-.023-.047-.053-.053-.085.09-.054.312.007.186-.229l.293.139c-.006-.116-.373-.169-.381-.363-.018-.146.24.132.334.157-.098-.139-.301-.408-.035-.328.027.062-.025.053-.025.091l.186.05c.178.245.059.234.297.33-.482-.38.125-.259-.355-.643l.131.041c-.012.007.016.032.002.038.289.108-.309-.328-.164-.37.064-.004.152.028.191.095l-.061-.168c.025-.015.105.057.08.071l.049-.145.014.012c-.062-.076-.15-.206-.186-.263.092.026.041.056.105.095l-.066-.157c.145.075.225.224.172.253.525.326-.08-.15.299-.05l.014.107c.301.181.24.059.463.131-.102-.057-.533-.216-.598-.378.053.01.09 0 .023-.114.17.138.158.069.184.018l.223.188c-.025-.1-.143-.19-.221-.301.066-.034.248.098.404.208.104-.054-.326-.172-.285-.307.145.001.094-.123.031-.318.117.015.129.123.207.158l-.141-.193c.014-.007.064.042.09.069-.037-.097-.217-.192-.229-.301-.227-.224.453.184.24-.122.078.037.127.125.215.193-.094-.25-.055-.195-.225-.484l.201.06c-.205-.096-.342-.329-.449-.526-.094-.053-.176-.1-.217-.119l-.035-.193c.047.021.111.097.188.191-.012-.022-.025-.042-.037-.062.109.039.219.168.318.299-.053-.028-.107-.058-.162-.087.111.14.238.289.369.397-.021-.028-.033-.057-.033-.081.029.038.059.07.082.086.027.018-.014-.034-.055-.098l.256.196-.09-.09.252.022c-.168-.3-.453-.696-.43-.919.143.194.273.272.479.465-.25-.167 0 .187-.104.212.055-.013.146.084.172.125l-.09-.304c.166.159.148.092.246.125-.354-.287-.139-.295-.191-.436.111.101.213.219.131.251.309.172-.305-.449-.035-.31-.012.016-.035.007.016.067-.064-.127.09-.133.168-.022l-.012.016c.129-.054.279-.276.02-.563.037.034.318.339.367.401l-.748-1.088c.217.25.824.756.879.966.057.012.121.023.086-.106-.049-.018-.371-.304-.375-.347.314.208.178.103.465.259-.072-.029-.408-.427-.359-.449.049.062.359.365.383.417l-.26-.452c.039.088.293.317.412.403-.078-.064.084-.065.072-.124l-.117-.051c.152-.037-.389-.615-.264-.693.057.089.408.504.502.504-.154-.213-.736-1.024-.773-1.264l.117.095-.039-.194c.213.338.637 1.067.789 1.364.117.051.127.12.176.059.115.084.113.186.102.206l.189-.053c-.207-.222-.102-.32-.275-.506l.066.369c-.209-.221-.49-.722-.357-.772.105.069.338.424.408.499-.059-.089-.043-.232.016-.183l.064.158c.129.041-.174-.38.082-.213.035-.004.32.244.209.104-.262-.237-.965-1.048-1.107-1.269.027.01.342.149.48.259.209.178.355.547.537.7-.053-.066-.096-.162-.107-.194.07.035.152.208.18.136-.186-.246.125-.069-.139-.222-.004-.111.096.004.146-.057-.145-.139-.369-.573-.371-.687.045.064.121.135.156.167.127-.066.266-.009.375-.081.055.053.16.089.219.21-.018-.056-.066-.147-.039-.177.223.168-.045.083.193.306-.105-.145-.066-.257-.088-.38-.178-.212-.139.035-.115.156-.232-.304-.391-.681-.379-.907.035-.142.186.171.168.115.207-.067-.242-.647.062-.526.193.158.279.396.393.531-.02.127-.201-.047-.244-.003l.127.05c.023.083.01.168-.059.13.174.145.309-.169.547-.093-.023-.085-.029-.18-.102-.25l-.023.057c-.148-.137-.072-.279-.176-.32-.02-.15-.07-.373.074-.333l.166.224c-.047-.067-.143-.105-.121-.019-.033-.125.328.237.17-.092l-.16-.126c-.018-.153-.1-.45.023-.424-.18-.21 0 .038-.225-.2.26.309-.205.108.096.414-.258-.277-.182-.073-.428-.292.053.074.121.13.033.131.012.025.023.057.029.076l-.008-.003.012.007c.004.013.006.016.002.003.039.023.076.055.107.095.086.194-.018.251.012.367-.059-.012-.043-.098-.115-.166l.043.17c-.119-.166-.287-.21-.27-.37l-.082.048c-.109-.062-.197-.053-.188.044-.062-.009.039.25-.021.098l-.047.189-.029-.041c-.137.065-.041.444-.398.249-.01.07-.01.15-.107.156l-.121-.128c-.012.087-.256-.018-.162.143-.35-.326-.305.115-.441.12l.143.18c-.068.038-.082.134-.094.264l.135.151c.047.177-.254.019-.334.123-.043-.064-.008-.07.041-.051-.416-.239-.014.465-.336.309.023.078-.012.076-.064.056.004-.003.004-.009 0-.015-.004.001-.008.004-.012.007-.035-.015-.074-.034-.107-.047.043.026.082.047.102.053-.016.021-.029.067-.023.13l-.16-.147c0 .004-.004.006-.004.01-.082-.032.049.096.176.203.01.04.027.083.051.13-.262-.235.008.157-.281-.087.107.15-.051.232.201.523-.035-.035-.059-.045-.047-.061-.062-.003-.123-.003-.072.102l-.207-.186.195.333c-.158-.081-.244-.133-.354-.326.135.332.008.168.156.481l-.123-.131c-.025.035.1.251-.021.165-.309-.172-.359.29-.752.247.416.327-.246-.078.045.208-.1-.075-.174-.098-.229-.2.01.174-.27.003-.072.298-.102-.073-.115-.142-.18-.183.014.025.055.103-.01.062-.062-.041-.064-.085-.092-.134-.07.108.207.374.469.623-.168-.067-.172-.028-.025.164-.104-.063-.219-.118-.199-.203-.041.019-.309.082-.094.276-.064-.04-.057.031-.039.061-.078.06-.104.05-.143.141l.053.01c.24.257.008.111-.01.197l-.025-.025c-.303-.029.045.136-.285.082l.172.133c.346.313-.309-.06-.236.132l.117.052c.09.144-.588-.289-.668-.282-.039-.016-.039-.056-.051-.089-.307-.062.207.196.189.321-.131-.082-.285-.267-.354-.229-.123-.048.248.476-.039.371.105.057.211.114.25.209-.014.086-.479-.114-.229.171-.033-.012-.059-.028-.082-.045.039.105.008.249.146.401-.627-.417.064.508-.482.086l-.082.164-.053-.045c-.105.064.004.197.111.329-.053-.006-.094-.061-.119-.084-.213.051-.199.084-.006.402l-.189-.122c.084.107-.428-.012-.314.275-.02-.016-.051-.044-.07-.073.104.301-.768 0-.139.529l.094.215c.143-.092.277.224.424.25.006.078-.291-.012-.283-.098l.041.013c-.334-.267-.234.073-.471-.096-.158.266-.529.38-.705.614l.293.158-.07.073c-.08-.021-.234-.115-.184-.167-.178-.073.062.188.121.229-.189.042-.289-.26-.32-.229l-.012.063.039.01c.086.115.203.199.143.261-.088.009-.188-.089-.209-.079-.02-.013-.033-.013-.027.023l-.094.09.246.101c.076.118-.078.092.201.208-.428-.181-.398.306-.545.273.117.169.072.232.002.301.059.01.312.157.238.208-.494-.354-.303-.014-.707-.193.275.105-.068.238.33.379-.078.032-.193-.119-.344-.149.109.263-.324.225-.365.443.066.044.188.079.266.18l-.396-.12c.012.056.371.275.098.191.062.026.156.067.164.103-.543.137-.158.859-.99.829.159.025.151.065.136.104zm9.171-11.271c0 .003.002.006.002.01-.089-.039-.054-.023-.002-.01zm-2.607 4.372c.041.06 0 .056-.08.021 0-.027.021-.039.08-.021zm-.697 1.615c.021.045.105.167-.006.098-.18-.177-.074-.115.006-.098zm-4.022 2.361.059.016c.027.071-.014.029-.059-.016z"/>
  <path d="M64.127 22.686h-.002l.027.026zm4.09-5.174c.033.041.07.07.102.062-.036-.012-.071-.036-.102-.062zm.58-2.883c-.029-.042-.08-.097-.062-.111l-.029.085c.023-.028.058.007.091.026zm1.144.729c-.006-.027.016-.012.01-.041l-.053-.086c-.033.028-.015.113.043.127zm-.763-.262c.104.152.105.077.127.024-.002.001-.004.004-.006.004-.127-.225-.123-.126-.121-.028zm.133.012c.008-.014.02-.026.035-.026-.051-.09-.028-.008-.035.026zm-.813-.144c.047.026-.117-.203-.066-.149-.11-.208.033.324.066.149zm.9.44.077.168.058.016zm-.263.234.096.015c-.02-.031-.023-.054-.023-.075-.044.016-.11.005-.073.06zm.101-.123c-.01.009-.029.029-.029.062.022-.008.039-.024.029-.062zm.153.167.097.016-.045-.03zm-.95.479c.039.067.084.092.09.05-.016-.054-.01-.097-.064-.149l-.026.099zm.584.265c-.045-.026-.076-.067-.129-.122l.162.231-.033-.109zm-.035.358c-.039-.066-.014-.164-.111-.174.041.067.045.245.111.174zm-1.256.273.014-.016-.299-.351zm-.058 1.327c-.059-.095-.127-.038-.174-.121.039.12-.025.092.197.296.141.023-.176-.222-.023-.175zm-8.873 8.135-.113.001.152.047zm.232.276-.26-.139.209.168c-.003-.019-.011-.055.051-.029zm6.385-5.498.156.069-.053-.048c-.064-.041-.078-.035-.103-.021zm-.506.547.012-.006-.225-.145zm-.137.73c.023-.015-.004-.076.021-.092.003.076-.29-.102-.021.092zm12.842 34.522c.004.022.096-.144.115-.171-.041.023-.14.214-.115.171zm-.418.255.043-.065-.127.146zm.002-.147c-.062.012-.201.13-.184.036-.146.288.092-.006.066.113l-.031.065.149-.214zm.074-.577c.004-.014.006-.02.012-.029-.006-.002-.012-.005-.016-.018-.056.112-.076.08.004.047zm.012-.029c.024.003.041-.099 0 0zm.008-.209c-.057.036-.088.104-.135.218l.082-.082c.031-.068.018-.095.053-.136zm-.277.407.037-.033c.013-.029.013-.04-.037.033z"/>
  <path d="M77.086 56.739c-.051.082 0 .006.047-.047l-.078.07c-.022.049-.075.139.031-.023zm-.066.204c.07-.009.178-.209.105-.198-.021.068-.025.118-.105.198zm-.18.579-.029.094.07-.085c-.035.043.01-.096-.041-.009zm.176-.97c.016-.047.018-.095.068-.184-.037.059-.084.163-.127.241l.059-.057zm-.059.057-.088.085c.022.028.053-.019.088-.085zm-.125.495.172-.186-.182.184zm.147-.808.093-.128-.146.192zm-.086-.018c.076-.107.094-.203.146-.266-.031.009-.105.097-.17.177.045-.041.053-.017.024.089zm-.122.026c.023-.023.057-.067.098-.114-.023.02-.055.054-.098.114zm.057.324.012.009c.018-.038.068-.135.074-.183l-.086.174zm-.002.006.002-.006c-.008-.01-.014-.021-.016-.023 0 .002.006.011.014.029zm.014.006v-.003c-.008.017-.012.023 0 .003zm-.205.596c.078-.108.107-.2.211-.327-.069.084-.162.165-.211.327zm.109-.323c.023-.045.057-.112.09-.153l-.098.098.008.055zm-.055-.012.047-.044-.004-.02zm.043-.411c-.055.066-.072.064-.096.066 0 .042.006.071.023.08.034-.05.095-.141.073-.146zm.039.085-.01.008c-.005.016-.007.021.01-.008zm-.31-.076.018-.028-.004-.003c-.002.008-.008.021-.014.031zm.184.172c-.004.039.027.003.062-.044-.018.01-.035.016-.047.01-.015.023-.023.04-.015.034zm.035-.314c-.014.038-.021.073-.029.104.023-.055.056-.146.029-.104zm.103.176.008-.006c.016-.038.006-.02-.008.006z"/>
  <path d="M76.783 56.533c-.02.021-.049.06-.076.094.018-.009.035-.023.055-.044.006-.014.015-.032.021-.05zm-.629.536c-.084.059 0-.073.025-.166-.092.203-.207.255-.359.546l.092-.081c-.023.045-.076.109-.09.154.09-.154.205-.28.139-.097.096-.102.365-.625.5-.927-.039.067-.074.131-.154.206-.039.092-.047.236-.153.365zm.325-.598.049.055-.018.021.023-.012c.002-.035.027-.104.076-.235-.064.063-.099.119-.13.171zm.019.318c-.084.01.07-.087.082-.205.027-.023.045-.026.057-.027.002-.026.006-.058.014-.095l-.006.011h.002l-.002.003c-.008.022-.016.037-.012.022-.002.001-.002.001-.002.003-.016.021-.027.042-.039.062.002-.045.021-.045.039-.062l.014-.025v-.003l-.111.062c0 .031.018.034.059.029-.107.165-.178.221-.262.415.04.007.103-.128.167-.19zm.139.25c-.08.156-.137.269-.207.427.018-.021.061-.087.062-.062-.018.057-.047.08-.076.136.033-.039.098-.104.119-.2l-.015.02c.007-.071.099-.299.117-.321zm-.246.073-.061.162.049-.09c.008.05.064-.061.107-.127l-.095.055zm.129-.732.105-.177-.17.238zm-.057-.085-.02.07.088-.155zm-4.457.304c-.023.043-.039.076-.037.081l.037-.081zm2.83-1.058c.053-.16.145-.405.059-.224l-.082.18c.031-.023.033.001.023.044zm-1.6.54c-.006.02-.014.038-.02.059.033-.06.062-.114.092-.165-.023.034-.046.07-.072.106zm-2.002.525-.086.183c.028.007.051-.091.086-.183zm4.516-.538c.018-.077.018-.114.01-.13-.03.113-.092.271-.01.13zm.01-.13c.023-.082.029-.14-.053-.028-.006.02-.01.029-.012.047.03-.021.053-.038.065-.019zm-6.547-.102v-.023c-.006.024-.004.026 0 .023zm-.26-2.076c.01-.011.021-.008.033-.01-.004-.013-.011-.015-.033.01zM75 56.921v-.002c-.014.036-.012.029 0 .002zm1.244-.767c.002.012.002.018.004.023.018-.027.023-.046-.004-.023zm-.031.023c.004-.012.008-.023.012-.028-.006 0-.012 0-.023-.001.007 0 .011.014.011.029zm-5.731-.549c.002-.006.002-.01.002-.019-.037.075-.027.065-.002.019zm3.108 1.571.006-.007v-.008z"/>
  <path d="M73.479 57.31c.127-.211.125-.179.117-.126l.23-.518-.347.644z"/>
  <path d="M75.82 56.863c.096-.105.234-.276.225-.155l-.129.247c.041-.071.053-.16 0-.092.08-.098-.115.362.08.056l.062-.185c.098-.104.279-.342.273-.245.117-.248-.023.023.105-.271-.17.362-.088-.067-.254.319.152-.342.029-.165.146-.462-.045.081-.074.16-.082.103-.016.022-.035.05-.047.067v-.007l-.004.01c-.006.012-.008.013 0 .004-.012.04-.029.085-.051.131-.117.175-.164.142-.232.229.002-.05.059-.09.094-.18l-.102.128c.092-.18.109-.324.213-.404l-.037-.029c.031-.112.02-.171-.041-.107.002-.049-.154.172-.062.041l-.123.076.023-.045c-.049-.058-.287.228-.184-.135-.045.034-.098.076-.105.008l.076-.16c-.057.041-.002-.197-.1-.04.189-.436-.086-.16-.096-.259l-.105.203c-.029-.029-.092.013-.174.074l-.09.182c-.111.13-.023-.174-.092-.185.041-.067.045-.042.033.005.141-.443-.289.227-.201-.103-.047.059-.047.03-.035-.021.002 0 .006-.003.008-.008 0-.003-.002-.004-.006-.006.01-.035.021-.074.027-.107-.016.048-.027.087-.029.106-.014-.002-.043.012-.082.048l.088-.198c-.002.003-.004.001-.006.003.018-.081-.059.086-.123.238-.023.027-.051.061-.08.104.141-.321-.098.085.047-.262-.09.158-.145.079-.324.422.021-.046.027-.07.039-.069 0-.048 0-.098-.064-.007l.111-.255-.205.316c.049-.164.078-.258.199-.438-.205.268-.105.088-.299.356l.078-.16c-.02-.002-.154.2-.102.062.102-.329-.188-.139-.164-.477-.199.488.047-.238-.129.13.047-.115.061-.187.123-.277-.105.086-.002-.22-.184.077.047-.117.088-.16.113-.23-.018.021-.064.09-.037.021.023-.07.049-.093.082-.138-.068-.008-.232.341-.381.668.041-.168.016-.153-.1.053.037-.111.07-.232.123-.255-.014-.024-.053-.215-.17.049.023-.069-.02-.032-.037-.003-.039-.037-.031-.063-.086-.056l-.008.048c-.154.313-.066.056-.119.081l.014-.032c.018-.267-.082.097-.049-.202l-.082.202c-.189.427.037-.282-.08-.138l-.031.121c-.086.138.174-.615.17-.68.008-.039.033-.057.053-.08.037-.283-.117.259-.193.3.049-.146.16-.356.137-.397.027-.122-.289.421-.225.128-.035.114-.068.229-.125.302-.053.024.068-.455-.104-.123.008-.032.018-.062.027-.089-.062.078-.148.112-.238.294.246-.709-.303.271-.053-.375h-.098l.027-.064c-.039-.063-.119.085-.195.234.004-.048.035-.106.049-.139-.033-.159-.051-.136-.238.165l.07-.214c-.062.116.002-.372-.166-.153.008-.024.025-.064.041-.092-.176.218-.014-.664-.311.098l-.125.17c.055.086-.123.332-.137.472-.045.035.002-.26.053-.288l-.008.041c.148-.398-.047-.175.047-.45-.154-.032-.23-.31-.375-.365l-.078.321-.043-.032c.008-.077.055-.254.086-.23.037-.185-.104.135-.127.203-.031-.149.139-.362.121-.376l-.037.015-.006.04c-.061.122-.105.259-.143.23-.01-.071.043-.2.035-.213.008-.023.006-.035-.014-.015l-.057-.046-.041.26c-.064.117-.057-.029-.109.263.084-.45-.191-.224-.18-.366-.088.172-.127.157-.168.122-.002.056-.07.342-.102.296.17-.582-.01-.275.066-.708-.041.29-.137.037-.189.447-.023-.057.053-.221.061-.367-.137.204-.146-.194-.271-.139-.02.078-.031.199-.08.311l.033-.399c-.029.033-.119.444-.098.167-.01.066-.023.166-.043.188-.125-.423-.475.225-.549-.534 0 .158-.02.17-.043.17.008.039-.035.194-.053.301l-.035-.312c-.066.291-.098 0-.152.28l.035-.045c-.094.326-.076.751-.158 1.177.105-.37-.002.58.158.053-.004.089-.039.135-.049.235.051-.18.074-.215.096-.126l-.012.045c.105-.024.111.164.193.306l.037-.212c.018.034.01.102.01.155.092-.312-.064-.032.035-.377-.059.433.166.041.08.529.035.01.041-.244.076-.234l-.018.133.047-.166c.018.032-.008.198-.033.308-.002-.014-.021.028-.031.037-.006.159.098-.035.096.018l-.016-.088c.127-.104.203.091.361-.144l.018-.099c.121-.161.031.124.133.061l-.01.023c.041-.093.076-.136.094-.119-.049.109-.02.233-.082.352.131-.172.08-.142.23-.489l-.031.165c.057-.142.078-.218.131-.248-.07.13-.041.253-.129.427-.016.377.223-.322.115.204.166-.436-.002-.268.047-.356.023-.152.127-.326.141-.273.025.018-.117.585-.051.594-.006-.003-.018.03-.021.026-.01.12.094-.141.068.053.098-.265.035.026.145-.316l-.086.063c.062-.081.217-.473.215-.261-.025.067-.072.153-.098.2-.014.105.053-.057.037.052-.107.34-.096.054-.211.306-.027.148.145-.229.014.137.168-.465.047.078.201-.271l-.066.205c.016-.031.062-.124.072-.115l-.105.26c.107-.216.006.217.078.105-.072-.018.062-.253.08-.412.176-.243-.119.554.008.489-.021.023-.008-.14.043-.228.004.048.004.136-.02.247.08-.021.059-.214.127-.329-.059.256.066-.091.121-.161l-.068.209c.031.158.162-.425.178-.241l-.125.276.061-.062-.086.232c.096-.16.094-.11.107-.032.041-.148.133-.374.168-.368-.018.13-.08.191-.023.179-.055.126-.121.283-.076.086-.027.065-.053.127-.08.191-.023.15.051.055.068.059-.006-.01-.008-.024-.002-.056l.166-.262c-.016.081-.047.141-.076.199.021-.02.064-.109.092-.12-.064.165-.123.338-.18.408l.129-.164c-.021.074-.037.212-.068.269 0 .111.203-.293.203-.147.016-.032.031-.062.051-.08.029.053-.006.271.131.06l-.082.309c.064-.054.1-.389.211-.478.084-.078-.08.26-.092.349.08-.142.238-.428.189-.168-.037.05-.031.002-.053.018l-.031.179c-.143.254-.135.149-.193.394.225-.572.15-.006.379-.576l-.027.128c-.002-.008-.018.025-.02.018-.064.291.191-.401.215-.296.004.051-.016.14-.055.203l.1-.125c.008.017-.035.114-.045.099l.086-.02-.006.018c.043-.086.121-.215.154-.271-.014.09-.031.058-.055.131l.092-.123c-.045.153-.133.285-.15.253-.197.583.088-.13.027.23l-.062.059c-.111.332-.035.226-.08.443.033-.108.129-.538.227-.665-.006.048 0 .074.07-.031-.084.202-.043.161-.012.159l-.111.268c.059-.065.113-.203.18-.317.02.04-.061.249-.125.427.031.062.104-.346.184-.372 0 .12.074.021.193-.117-.01.104-.076.161-.096.241l.117-.2c.002.007-.027.071-.041.104.055-.073.115-.266.182-.323.137-.289-.115.456.072.146-.021.078-.076.16-.117.265.152-.192.119-.137.295-.407l-.035.193c.057-.214.201-.43.322-.608.029-.101.057-.188.07-.23l.119-.117c-.014.047-.059.135-.117.241.012-.021.025-.041.039-.059-.025.106-.104.255-.184.396.018-.056.033-.114.053-.173-.086.153-.176.326-.244.482.018-.029.037-.053.051-.062-.023.041-.041.079-.053.106-.01.028.021-.027.061-.091l-.119.3.055-.115-.012.216c.182-.273.424-.688.562-.771-.121.206-.168.35-.285.604.104-.279-.113.087-.131.014.01.038-.049.157-.076.197l.188-.212c-.098.207-.055.163-.076.259.174-.418.18-.249.27-.361-.062.139-.135.276-.156.227-.104.327.275-.459.193-.179-.012 0-.006-.023-.041.046.076-.114.084.007.016.121l-.01-.001c.035.075.18.086.354-.258-.023.045-.209.415-.244.485l.666-1.12c-.152.294-.459 1.021-.588 1.167-.006.048-.014.105.066.015.012-.047.184-.441.211-.464-.125.349-.061.188-.152.493.016-.07.258-.529.273-.503-.037.068-.223.462-.254.506l.279-.43c-.055.076-.191.387-.242.523.037-.094.043.032.082-.006l.027-.119c.027.102.379-.609.432-.552-.057.089-.307.569-.305.643.131-.227.625-1.089.775-1.239l-.059.132.121-.131c-.205.337-.652 1.035-.836 1.303-.029.117-.07.161-.029.165-.051.132-.115.18-.129.183l.041.121c.135-.272.199-.24.311-.467l-.23.234c.133-.272.439-.745.475-.666-.041.115-.256.478-.301.568.055-.089.146-.15.117-.082l-.098.134c-.02.118.234-.334.145-.055.002.023-.141.368-.057.209.139-.318.623-1.277.758-1.501-.006.023-.078.332-.143.492-.102.253-.33.561-.418.776.037-.073.098-.157.117-.186-.02.072-.123.227-.076.209.146-.271.051.056.135-.224.072-.062.004.072.045.078.08-.184.346-.585.418-.646-.037.068-.078.162-.098.205.051.057.02.197.074.231-.029.069-.043.164-.117.273.033-.042.09-.131.111-.128-.09.254-.059.016-.184.312.086-.156.162-.193.24-.277.123-.249-.033-.079-.111.006.18-.338.412-.667.557-.788.094-.058-.096.229-.061.186.059.108.395-.544.34-.261-.086.231-.23.428-.307.585-.084.061.014-.169-.018-.175l-.023.119c-.051.064-.105.104-.088.034-.078.206.135.121.107.336.051-.064.111-.127.15-.22l-.039.02c.076-.182.176-.212.189-.309zm.17-.639-.006.007c.018-.086.008-.053.006-.007zm-5.244-2.047-.006.057c-.039.054-.017.001.006-.057zm1.412 2.476c-.027.038-.1.16-.059.038.108-.226.071-.111.059-.038zm.983-.154c-.039.063-.035.025-.014-.057.016-.009.025.002.014.057z"/>
  <path d="M71.248 56.572v-.003l-.014.037zm3.211.912c-.025.047-.041.09-.035.11.006-.032.017-.07.035-.11zm1.955-1.344-.059.034c.02-.002.004.042-.008.077.026-.045.055-.114.067-.111zm-.406 1.318c.018-.021.012.002.027-.019l.049-.089c-.022-.004-.074.06-.076.108zm.082-.669c-.088.162-.039.117-.002.1-.002 0-.004 0-.004-.003.131-.221.066-.158.006-.097zm.025.103c.053-.088.004-.023-.02-.006.01-.005.02-.005.02.006zm-.008-.635c-.012.047.119-.203.088-.135.123-.198-.201.212-.088.135zm-.293 1.021-.002.049.102-.202zm-.082-.183.004.072c.018-.033.031-.051.045-.062-.015-.018-.015-.071-.049-.01zm.049.009c.008.009.02.011.043-.019-.006-.001-.021-.001-.043.019zm-.045.258.012-.046-.016-.027zm-.394-.459c-.041.066-.053.113-.027.095.035-.044.062-.063.092-.133l-.065.038zm-.123.567c.014-.047.035-.091.066-.159l-.135.246.069-.087zm-.237.181c.039-.067.105-.105.104-.179-.041.068-.156.171-.104.179zm-.259-.77.009.002.211-.411zm-.85.641c.059-.092.021-.115.074-.195-.076.09-.062.026-.186.304-.007.12.137-.25.112-.109zm-4.992-4.029-.016-.102-.006.157zm-.076.032-.064.258c.01-.012.029-.033.023.034l.041-.292zm3.203 3.705.029-.066c.025-.071.021-.078.014-.095l-.043.161zm-.274-.341.088-.253-.092.244zm-.423.185c.006.015.043-.035.051-.02-.046.035.06-.29-.051.02zM44.366 81.396c-.017.012.172.008.207.009-.043-.017-.257-.007-.207-.009zm-.432-.17.077.003-.189-.026zm.004-.16c-.323.016.052.057-.063.086l-.074.005.261.013c-.042-.035-.215-.079-.124-.104zm.658-.067c.014-.002.022-.003.032-.005-.002-.003-.001-.009.007-.016-.125.006-.108-.019-.039.021zm.032-.005c.009.018.105-.012 0 0zm-.072-.077.112.022c.075-.006.091-.025.146-.018-.063-.023-.136-.017-.258-.004zm-.237-.021.048.012c.031-.003.042-.006-.048-.012zm.148.036-.1-.023c-.052.003-.157.005.037.011-.096-.003-.004.002.063.012zm-.048.014c-.07.012-.115.029-.227.007.045.041.271.035.227-.007zm-.816.113-.095.017.109.015c-.055-.009.087-.033-.014-.032zm1.119-.283c-.069.003-.184.008-.271.011l.079.016c.047-.009.091-.025.192-.027zm-.271.011-.118-.023c-.014.021.042.026.118.023zm-.491.107.249.04-.252-.047zm.77-.21.16.011-.241-.023zm-.028-.064c.132.009.224-.016.304-.006-.023-.016-.136-.029-.238-.042.057.013.042.028-.066.048zm.066-.048c-.03-.008-.075-.015-.148-.021.03.007.088.013.148.021zm-.402.15c.042-.003.151-.006.197-.021l-.194.01-.003.011zm-.003-.009.006-.002c.004-.01.009-.018.011-.021-.002.003-.006.009-.017.023zm.003.01c-.019 0-.025 0 0 0zm-.231.105c-.108-.014-.224-.043-.389-.014.133.011.227-.006.389.014zm-.011-.091-.043.026c.05-.002.125-.006.179 0l-.136-.026zm-.062-.012.062.012.017-.01zm.214-.12c.061.002.169.008.163-.009-.084-.01-.091-.023-.105-.036-.039.015-.059.031-.058.045zm.109.047-.011-.001c-.017.001-.021.003.011.001zm-.051-.229c-.01 0-.024.002-.035.002l.034.001.001-.003zm-.094.185c-.038.011.01.018.069.023-.019-.009-.031-.018-.033-.026-.028-.001-.046-.001-.036.003zm.288-.094c-.04.007-.074.013-.106.019.062-.007.157-.018.106-.019zm-.1.132.009.002c.041-.004.02-.002-.009-.002zm0 0c-.028-.006-.076-.01-.119-.015.016.008.037.014.066.02.013-.002.034-.003.053-.005zm-1.335-.255c.179 0 .344.028.153.056.134.023.723.003 1.053-.021-.078 0-.15.001-.256-.025-.097.011-.228.061-.391.04-.092-.034.064-.029.159-.046-.224.015-.326-.042-.654-.032l.116.029c-.053.001-.134-.01-.18-.001z"/>
  <path d="m44.281 80.475.022.01c.031-.012.103-.021.244-.038-.088-.018-.154-.021-.214-.021l-.025.052-.027-.003z"/>
  <path d="M44.304 80.532c-.195-.007-.278-.032-.489-.015.014.031.163.021.248.038-.049-.05.109.015.219-.023.033.011.043.02.052.028.024-.011.053-.02.089-.028l-.012.002-.107-.05c-.028.012-.022.025 0 .048zm.075.002h.029c-.024.003-.039.003-.025.001-.002-.001-.004-.001-.004-.001-.027 0-.051-.002-.074-.002.04-.014.05-.003.074.002zm-.798.253c.067-.022.31-.049.336-.046-.175.008-.3.014-.472.028.028.003.105.006.085.018-.059.01-.094 0-.158.001.052.008.14.025.235.002l-.026-.003zm.244-.138-.096-.041-.169.022.102-.002c-.04.026.085.018.163.021zm.606-.232.206.005-.291-.023zm-.025-.054h.179l-.107-.013zm-2.245-2.878c-.049 0-.085.001-.088.004l.088-.004zm2.203 1.526c.167-.023.425-.051.224-.044l-.196.012c.036.011.014.022-.028.032zm-1.201-.877c-.018.003-.04.006-.059.009.067.002.129.002.188.003-.041-.004-.084-.007-.129-.012zm-1.333-1.171-.2.006c.002.02.101.002.2-.006zm2.501 2.842c.077-.018.109-.029.119-.041-.113.02-.282.038-.119.041zm.119-.041c.084-.015.136-.03-.001-.045-.02.004-.03.006-.046.01.033.01.06.022.047.035zm-2.683-4.476c.008-.003.013-.005.023-.007-.027.002-.028.006-.023.007zm1.868-.858c.013.003.015.012.018.02.013-.007.01-.014-.018-.02zm-.409 5.19c-.037.003-.03.002 0 0zm1.269.537c-.009.004-.014.007-.019.01.033.002.052 0 .019-.01zm-.004-.014c-.003-.005-.007-.009-.011-.017.003.006-.006.014-.02.02.014-.003.025-.003.031-.003zm-2.06-4.038.018-.006c-.083.001-.069.004-.018.006zm-.115 2.67.01.002.007-.003zm-.148-.035c.245.009.216.02.165.034l.565-.034h-.73z"/>
  <path d="M43.077 80.135c.082.011.166.028.265.018l-.035-.019c.196-.02.272.033.363.009.138.024.355.051.244.089l-.277.009c.082-.001.166-.024.081-.035.123.015-.375.061-.012.073l.192-.027c.139.024.434.054.347.087.273-.018-.032-.007.289-.033-.399.023.016-.082-.403-.047.372-.026.157-.042.475-.076-.092.003-.175.014-.13-.015-.027-.001-.061-.004-.081-.006l.007-.001-.011.001c-.014 0-.017 0-.003.002-.041.007-.089.012-.14.015-.21-.012-.203-.055-.313-.069.044-.016.105.006.203-.003l-.163-.021c.203-.004.338-.046.457-.009l.009-.034c.113-.021.159-.05.073-.066.044-.016-.225-.038-.066-.024l-.126-.053.051-.002c.026-.053-.337-.104.029-.168-.051-.018-.114-.035-.056-.065l.175-.009c-.062-.021.175-.07-.008-.077.472-.034.099-.116.182-.158l-.229.001c.012-.027-.054-.054-.147-.086l-.203.006c-.167-.026.142-.08.119-.127.078.001.059.015.012.023.456-.067-.337-.111-.005-.171-.075-.011-.049-.021.001-.031 0 0 .004.002.011.003.001-.001.002-.003.002-.006.034-.006.075-.015.107-.021-.049.008-.09.014-.108.018-.004-.009-.03-.023-.082-.036l.218-.014c-.003-.001-.003-.001-.007-.003.081-.018-.103-.009-.267.005-.036-.008-.08-.014-.132-.017.352-.021-.119-.035.255-.062-.169-.003-.15-.059-.448-.062.043-.018.087-.037-.022-.047l.276-.017-.374-.023c.168-.027.266-.039.48-.024-.33-.041-.125-.038-.451-.07l.179-.004c-.008-.017-.249-.032-.101-.047.339-.049.042-.176.354-.279-.526.041.235-.055-.173-.038.124-.012.194-.028.303-.018-.124-.041.196-.079-.149-.095.125-.012.183.001.257-.008-.027-.001-.109-.009-.035-.018s.104.002.159.006c-.022-.047-.406-.032-.767-.018.169-.032.146-.042-.092-.048.118-.015.241-.035.285-.008.017-.018.168-.109-.12-.096.074-.009.021-.023-.012-.026.016-.038.042-.043.013-.078l-.046.014c-.35.006-.081-.026-.125-.053l.035-.002c.247-.081-.123-.021.159-.104l-.216.018c-.466.023.27-.076.088-.103l-.123.021c-.161-.009.628-.1.685-.126.04-.007.066.003.097.009.27-.076-.285.012-.354-.026.153-.018.39-.016.417-.047.122-.023-.504-.047-.214-.105-.117.017-.234.034-.324.021-.045-.024.439-.113.065-.11.032-.008.063-.011.092-.014-.098-.015-.166-.062-.369-.057.746-.084-.375-.11.313-.167l-.043-.067.071-.004c.042-.049-.125-.05-.292-.05.046-.015.111-.014.147-.017.134-.077.104-.081-.244-.102l.223-.026c-.13-.003.342-.129.076-.167.026-.003.069-.006.101-.004-.269-.043.603-.238-.211-.178l-.205-.022c-.057.065-.353.028-.485.069-.05-.018.24-.089.284-.063l-.04.008c.424-.036.143-.092.432-.124-.028-.116.188-.262.187-.377l-.326.056.013-.041c.074-.021.254-.048.246-.018.184-.039-.164-.026-.235-.018.125-.073.386-.03.391-.048l-.028-.02-.038.011c-.137-.002-.279.018-.268-.02.062-.03.201-.038.211-.048.024-.003.034-.008.008-.015l.02-.053-.255.056c-.131-.005.006-.048-.284.015.447-.095.133-.205.27-.246-.193-.001-.195-.031-.179-.072-.052.018-.342.066-.311.029.602-.079.25-.097.678-.19-.282.067-.085-.08-.485.019.044-.033.224-.036.361-.078-.242-.026.129-.166.038-.232-.079.012-.197.045-.316.048l.385-.108c-.041-.009-.456.063-.187-.013-.066.016-.165.039-.191.032.356-.223-.363-.255.327-.547-.147.05-.165.038-.173.023-.034.018-.193.036-.298.06l.283-.123c-.296.046-.031-.066-.313-.017l.054.01c-.336.038-.731.183-1.157.262.382-.044-.546.186.001.13-.086.026-.139.017-.236.041.184-.023.225-.015.147.027l-.045.005c.056.068-.118.135-.224.241l.209-.044c-.025.023-.091.038-.143.057.324-.036.01-.055.366-.099-.425.101.015.131-.471.232 0 .029.243-.05.245-.022l-.133.028.172-.022c-.026.023-.189.061-.301.08.012-.007-.034-.007-.044-.01-.152.05.064.057.015.074l.078-.041c.136.056-.023.178.258.208l.1-.021c.193.027-.103.062-.007.111l-.024.001c.102-.003.155.008.146.025-.12.003-.223.064-.356.062.209.032.161.008.539-.007l-.164.035c.152-.009.232-.02.28.005-.147-.004-.25.058-.443.056-.353.117.383.046-.144.151.465-.035.246-.094.347-.091.148-.035.348-.023.306.004-.007.023-.583.118-.566.17.001-.006-.034-.002-.032-.008-.115.035.165.018-.022.066.281-.023-.011.033.345-.009l-.09-.038c.097.015.517-.014.322.059-.072.006-.168.004-.222.003-.103.026.073.016-.032.044-.356.041-.087-.05-.363-.043-.147.034.266.022-.121.058.493-.043-.054.058.326.046l-.213.025c.034.001.137 0 .133.01l-.279.017c.24 0-.198.08-.065.092-.015-.056.255-.045.407-.088.296.035-.548.108-.44.176-.031-.008.125-.056.225-.051-.042.021-.123.049-.234.072.049.047.218-.035.352-.027-.258.05.108.015.193.027l-.217.026c-.134.076.454-.036.29.038l-.303.011.08.021-.247.021c.186.009.139.025.073.063.152-.025.395-.04.403-.014-.128.032-.207.012-.173.047-.137.006-.308.015-.109-.023-.072.004-.137.009-.208.013-.146.035-.029.053-.025.066.007-.006.018-.014.049-.021l.306.023c-.081.018-.147.018-.212.018.025.007.126.006.146.021-.177.013-.359.033-.444.019l.201.032c-.077.012-.209.049-.274.049-.102.037.349.034.215.087.034-.001.068-.001.093.005-.037.041-.251.092-.005.112l-.314.053c.075.026.396-.068.521-.025.104.031-.269.04-.356.062.161.005.49.012.234.07-.061-.007-.015-.021-.039-.029l-.177.044c-.292-.009-.194-.041-.439.007.613-.05.072.1.684.052l-.127.028c.005-.006-.031-.003-.025-.009-.291.059.445-.01.362.043-.045.021-.134.038-.208.033l.155.023c-.011.012-.118.018-.106.006l.053.05-.018.002c.096.003.246.009.311.012-.087.021-.066-.003-.142.007l.151.02c-.158.023-.314.01-.293-.012-.609.072.157.013-.196.099l-.081-.021c-.345.042-.218.056-.432.101.112-.015.54-.101.696-.079-.045.012-.066.025.059.035-.218.015-.163.028-.149.049l-.289.019c.086.018.232.006.364.011-.027.027-.25.048-.438.065-.042.044.356-.051.415-.006-.107.041.013.057.189.089-.098.029-.178.006-.259.02l.233.006c-.005.004-.076.007-.112.009.09.013.289-.017.371.009.319-.011-.46.085-.099.101-.082.013-.178.006-.29.015.239.035.174.032.495.056l-.188.045c.216-.036.474-.018.686 0 .105-.015.196-.027.24-.033l.157.038c-.048.007-.147.009-.269.007.024.002.048.003.07.005-.106.021-.274.021-.436.018.056-.008.118-.017.178-.025-.176-.003-.371-.003-.54.008.033.001.062.006.079.012-.047-.002-.09-.002-.119.001-.031.005.034.006.107.009l-.322.026.129-.004-.2.069c.326.026.805.041.94.104-.238-.008-.387.013-.667.024.296-.032-.128-.047-.069-.083-.031.019-.165.021-.211.019l.271.05c-.229.009-.171.021-.266.041.453-.032.303.034.443.053-.151.007-.307.009-.272-.023-.339.048.533.021.245.067-.003-.008.02-.014-.058-.014.136.014.03.061-.103.056l-.004-.007c-.051.051.002.151.388.146-.051 0-.464.009-.542.009l1.297.046c-.331.003-1.117.06-1.305.026-.047.013-.102.029.016.051.047-.01.477-.036.508-.027-.367.044-.196.029-.508.076.07-.014.589-.018.573.003-.078-.002-.511.018-.565.012l.51.033c-.092-.011-.431.01-.575.024.1-.007-.007.043.043.055l.118-.025c-.075.058.716.034.692.09-.105-.005-.648.001-.71.03.261.005 1.255.022 1.457.067l-.148.012.171.033c-.393-.015-1.22-.059-1.542-.084-.117.022-.176.01-.161.04-.14.014-.213-.012-.222-.021l-.087.073c.304-.012.307.046.561.037l-.318-.069c.304-.01.865.023.813.076-.121.015-.542.003-.643.006.104.005.202.043.127.05l-.163-.019c-.114.03.405.038.115.075-.019.014-.389.043-.209.041.346-.024 1.42-.05 1.681-.042-.022.006-.33.068-.5.085-.272.024-.65-.017-.883.003.083 0 .186.009.219.013-.071.014-.258-.001-.219.025.308-.002-.025.054.261.007.089.025-.062.029-.048.059.199-.012.679.018.768.044-.078 0-.181.006-.228.01-.027.055-.167.085-.169.135-.075.006-.165.031-.298.022.055.007.16.013.167.027-.266.033-.041-.033-.362-.007.179 0 .248.036.359.058.277-.01.053-.052-.059-.072.382-.005.782.029.959.078.095.041-.247.022-.192.028-.066.08.667.06.392.129-.243.028-.484.006-.659.015-.092-.034.154-.055.144-.078l-.115.029c-.081-.01-.143-.032-.072-.045-.221.022-.044.13-.246.193zm1.236-.118h-.011c.086-.021.051-.013.011 0zm-.445-4.229-.055.016c-.066-.009-.009-.012.055-.016zm-1.688 1.821c-.046-.005-.189-.011-.061-.026.25-.009.131.007.061.026zm.565.61c-.071-.003-.037-.015.046-.029.018.007.011.016-.046.029zm1.048.62c-.025-.002-.048-.002-.078-.002.051-.001.075-.007.078.002z"/>
  <path d="m41.867 76.962.002-.002-.039.003zm.606 2.501c-.054.001-.099.006-.112.018.031-.009.07-.014.112-.018zm2.06.774c.012.012-.036.017-.071.022.052 0 .125-.006.128.001l-.057-.023zm-1.293.252c.027.003.003.007.03.01l.102-.001c-.007-.015-.089-.025-.132-.009zm.625-.199c-.183.004-.121.019-.087.036 0-.001-.002-.003 0-.003.257.003.172-.014.087-.033zm-.077.057c.103 0 .022-.007-.004-.016.008.004.014.01.004.016zm.552-.242c-.047.009.235.003.16.008.234.007-.283-.052-.16-.008zm-1.08.204.226-.007-.182-.009zm.166-.139-.063.029c.038-.001.06.002.077.006.008-.016.053-.036-.014-.035zm.052.059c-.002-.006-.009-.016-.038-.023-.004.008.001.017.038.023zm-.223.014-.063.029.047-.008zm.148-.402c-.077-.003-.125.006-.094.017.054.007.084.019.16.013l-.066-.03zm-.555.128c.047-.008.098-.009.172-.015l-.281.003.109.012zm-.272-.091c.077.003.142.032.206.003-.078-.002-.224-.041-.206-.003zm.554-.458.003.008.461-.009zm-.762-.358c-.116-.02-.051-.031-.354-.014-.11.038.284 0 .147.037.11.005.113-.028.207-.023zm1.586-4.809-.149.046.059-.003zm-.145 0-.263.038c.013.003.04.009-.024.025l.287-.063zm-2.214 3.459.07-.005c.076-.007.082-.013.093-.024l-.163.029zm.188-.308.263-.03-.258.024zm-.354-.223c-.01.012.049.018.039.029-.049-.018.29-.062-.039-.029zM10.821 58.808c.013-.049-.06-.25-.045-.202-.02-.012.038.167.045.202zm.073-.695.019.076-.019-.193zm.085-.089-.027-.069.056.256c.037-.056.05-.241.109-.166-.113-.303-.065.075-.138-.021zm.42.622c.006.012.009.02.014.029.004-.003.011-.006.025-.001-.043-.116-.005-.111-.039-.028zm.014.03c-.021.016.046.095 0 0zm.091.012c.028.07.061.076.066.132.014-.07-.015-.138-.068-.249l.002.117zm-.044-.301c.012.029.019.038.002-.052l-.002.052z"/>
  <path d="M11.456 58.426c-.026-.092-.005-.001 0 .067l.005-.106c-.02-.049-.051-.15-.005.039zm-.034.026c-.038-.062-.073-.097-.075-.213-.046.061.028.276.075.213zm-.389-.73-.051-.084.012.11c-.006-.055.069.07.039-.026zm.62.773c.026.04.062.075.093.172-.019-.065-.065-.171-.093-.254v.082zm0-.082v-.125c-.035-.003-.024.052 0 .125zm-.274-.167-.006-.262-.01.006zm.502.386.028.158-.036-.241zm.08-.056c.025.131.087.206.096.288.018-.029.004-.145-.009-.247-.002.061-.027.055-.087-.041zm.087.041c.001-.032-.002-.077-.014-.15 0 .032.007.089.014.15zm-.326-.315c.015.038.052.141.085.179l-.072-.181-.013.002zm.011-.008.002.006c.016-.001.028 0 .033.002-.004-.002-.014-.005-.035-.008zm-.015.008h.004c-.008-.018-.01-.024-.004 0zm-.308-.551c.025.131.076.213.094.378-.012-.109-.004-.233-.094-.378zm.169.295c.016.05.044.118.051.173l-.001-.143-.05-.03zm.049-.033.001.063.018.012zm.289.301c-.01-.086.005-.098.021-.118-.033-.027-.061-.041-.081-.033.015.059.039.165.06.151zm-.095-.026v-.011c-.007-.014-.01-.019 0 .011zm.293-.185.01.032h.004c-.004-.009-.009-.021-.014-.032zm-.273.026c-.027-.03-.022.018-.013.078.006-.022.015-.038.027-.044-.006-.026-.012-.044-.014-.034zm.219.234c-.021-.037-.041-.066-.061-.093.027.055.073.141.061.093zm-.217-.037v.009c.018.038.01.019 0-.009z"/>
  <path d="M11.844 58.326c0-.029-.008-.077-.015-.119-.005.018-.008.041-.007.07.006.013.014.032.022.049zm.059-.834c.018-.104.058.048.11.13-.088-.205-.042-.329-.154-.638l-.004.125c-.017-.049-.028-.132-.053-.172.053.172.064.341-.03.17.007.139.211.693.344.995-.023-.074-.045-.143-.042-.254-.044-.088-.152-.193-.171-.356zm.141.643-.003-.026-.008.026c.026.023.061.088.126.214-.002-.091-.018-.156-.034-.214h-.081zm-.078.022c-.047-.19-.038-.281-.124-.474-.039.026.02.165.02.254.055-.07.013.11.097.199-.003.035-.013.05-.022.06.02.02.041.044.063.073l-.006-.01v-.003c-.01-.022-.016-.035-.008-.023v-.005c-.007-.026-.013-.047-.02-.071.033.032.019.048.02.071l.008.028v.003l.038-.125c-.023-.021-.039-.009-.066.023zm-.565-.579c.048.056.156.276.159.303-.061-.164-.104-.28-.174-.44.003.028.022.104 0 .091-.032-.053-.028-.091-.048-.15.006.053.007.145.067.225l-.004-.029zm.261.173.028-.11-.08-.15.033.097c-.046-.028 0 .088.019.163zm.504.475.056.199-.056-.288zm.068-.048.053.171-.013-.109zm3.276-3.501c-.012-.047-.023-.08-.029-.082l.029.082zm-1.431 2.837c.083.146.201.379.128.191l-.076-.181c-.006.041-.026.025-.052-.01zm.814-1.57c-.009-.017-.019-.035-.028-.053.018.065.036.126.052.181-.008-.039-.016-.083-.024-.128zm1.285-1.839-.055-.194c-.03.013.02.101.055.194zm-3.185 3.749c.046.065.075.091.093.094-.064-.098-.14-.25-.093-.094zm.093.094c.047.073.087.113.062-.021-.011-.018-.017-.026-.026-.04-.005.036-.013.067-.036.061zm5.549-4.606c.005.008.008.012.014.021-.008-.027-.011-.027-.014-.021zm1.344 1.617c-.002.015-.013.019-.022.024.008.012.017.008.022-.024zm-7.083 1.766h.001c-.016-.036-.013-.028-.001 0zm-.347 1.444c-.009-.006-.014-.011-.02-.014.008.033.017.052.02.014zm.02-.011c.003-.004.009-.01.019-.018-.008.006-.02 0-.033-.01.008.013.013.022.014.028zm4.955-3.848c.003.006.005.009.01.017-.014-.083-.016-.068-.01-.017zm-3.76 1.14.001.009.005.007zm.003-.158c.062.238.039.215.003.174l.219.522-.222-.696z"/>
  <path d="M20.031 54.68c-.071-.333-.291-.693-.423-1.106.081.38-.292-.499-.184.048-.044-.079-.032-.137-.073-.229.043.183.034.227-.031.162l-.01-.045c-.095.083-.201-.073-.365-.144l.08.199c-.036-.018-.063-.079-.094-.124.078.316.081-.011.171.337-.179-.398-.188.063-.377-.396-.042.012.095.229.054.241l-.056-.121.047.166c-.036-.018-.106-.171-.146-.277.011.01.008-.037.012-.049-.087-.136-.08.087-.109.043l.067.064c-.069.157-.265.042-.278.337l.042.093c-.017.206-.104-.081-.163.033l-.005-.023c.017.101.01.158-.018.156-.019-.119-.123-.2-.139-.334-.018.221.011.163.085.537l-.072-.151c.034.148.06.225.031.28-.014-.147-.119-.228-.145-.421-.224-.309-.008.397-.242-.088.123.449.172.211.184.313.075.134.088.337.042.304-.033.001-.263-.536-.336-.5.009-.002-.003-.033.004-.035-.071-.1.002.171-.102.005.082.269-.051.001.073.337l.04-.104c-.006.103.109.506-.029.341-.021-.07-.036-.165-.042-.22-.057-.092-.011.079-.07-.015-.125-.336.056-.104-.001-.374-.075-.133.014.271-.105-.098.149.471-.1-.032-.011.339l-.075-.2c.004.033.025.135.009.136l-.075-.271c.046.238-.154-.162-.146-.026.079-.038.113.234.204.367.005.307-.263-.5-.337-.359.003-.035.104.097.117.198-.038-.031-.096-.098-.15-.197-.058.072.092.2.109.337-.122-.234.002.113 0 .204l-.08-.203c-.136-.097.144.433.006.306l-.078-.294-.011.088-.083-.234c.024.189-.007.149-.075.103.066.139.14.37.104.392-.072-.11-.062-.198-.103-.148-.038-.132-.088-.297.009-.119-.021-.068-.041-.131-.062-.198-.083-.127-.082-.005-.1.006.01.004.023.012.04.039l.034.312c-.042-.07-.057-.136-.071-.2-.007.029.02.127.003.153-.06-.168-.128-.338-.126-.428l-.001.212c-.033-.069-.115-.182-.129-.247-.08-.081.026.36-.078.254.009.034.016.065.014.095-.065-.018-.19-.201-.161.049l-.151-.282c-.021.086.194.354.16.497-.019.117-.121-.244-.173-.318.032.16.104.481-.043.263-.005-.062.025-.024.033-.053l-.104-.149c-.06-.287.011-.209-.117-.425.221.574-.128.12.093.692l-.076-.113c.01.002-.002-.032.007-.029-.159-.254.126.429.031.373-.04-.035-.088-.112-.1-.186l.006.16c-.018-.004-.055-.104-.036-.101l-.058.076-.006-.018c.025.095.056.242.067.307-.052-.074-.015-.064-.048-.134l.013.156c-.077-.142-.099-.3-.061-.29-.266-.555.022.157-.195-.142l.011-.088c-.155-.313-.139-.184-.264-.368.052.101.293.473.304.633-.03-.038-.056-.051-.034.073-.081-.203-.085-.144-.11-.12l-.105-.269c-.002.091.056.227.085.355-.047-.014-.138-.218-.216-.389-.075-.021.173.316.125.395-.089-.084-.08.041-.072.224-.071-.081-.06-.167-.103-.238l.056.225c-.01-.001-.034-.068-.045-.103.008.093.105.27.094.357.107.301-.253-.402-.168-.047-.042-.072-.059-.167-.104-.27.021.246.006.183.068.502l-.116-.159c.114.188.164.445.202.656.052.093.097.174.118.213l-.005.168c-.025-.041-.055-.136-.089-.253.005.023.01.047.015.069-.062-.091-.111-.252-.154-.408.028.052.058.105.088.158-.049-.17-.106-.356-.171-.514.008.034.011.063.008.081-.013-.046-.026-.087-.039-.113-.013-.025.003.035.021.108l-.132-.295.043.12-.154-.157c.061.325.184.79.14.949-.062-.229-.134-.362-.234-.624.132.268.024-.145.094-.107-.036-.019-.079-.146-.09-.192l.014.285c-.081-.215-.081-.153-.137-.234.181.417.046.306.062.449-.057-.141-.104-.29-.049-.271-.169-.301.131.519-.019.266.01-.007.023.012 0-.062.025.137-.073.058-.106-.071l.009-.006c-.087-.024-.208.076-.082.44-.016-.049-.153-.438-.18-.512l.338 1.257c-.106-.312-.426-1.033-.436-1.23-.033-.037-.073-.081-.065.041.028.041.197.437.192.471-.172-.328-.099-.173-.26-.446.042.06.206.551.174.547-.023-.074-.183-.479-.192-.533l.115.501c-.017-.092-.149-.405-.215-.533.042.09-.059.013-.059.066l.069.1c-.1-.044.178.699.096.702-.028-.103-.205-.614-.264-.661.075.252.362 1.205.366 1.418l-.064-.135.009.179c-.104-.38-.304-1.188-.369-1.507-.068-.1-.068-.162-.105-.133-.063-.126-.051-.208-.042-.22l-.126-.048c.11.283.033.313.125.551l-.006-.336c.109.283.24.833.153.81-.06-.106-.175-.515-.211-.608.028.102.005.212-.027.145l-.027-.163c-.077-.094.078.401-.068.147-.022-.014-.181-.351-.122-.18.145.315.519 1.322.591 1.574-.014-.021-.198-.281-.275-.435-.119-.245-.183-.625-.285-.836.027.079.048.182.054.214-.041-.061-.082-.244-.104-.194.1.29-.082.003.073.251-.005.097-.06-.045-.096-.018.082.183.193.65.187.745-.024-.074-.066-.168-.086-.21-.083-.002-.169-.121-.239-.103-.031-.067-.094-.142-.124-.271.008.054.033.156.015.169-.129-.238.033-.054-.104-.346.057.169.028.251.035.366.101.259.087.028.08-.087.127.359.208.754.193.943-.027.11-.106-.225-.099-.169-.13-.028.125.66-.056.43-.115-.22-.158-.458-.223-.621.017-.103.121.122.15.103l-.077-.096c-.012-.082-.001-.148.04-.089-.101-.197-.195.021-.343-.145.012.082.013.171.056.26l.015-.041c.087.179.038.273.101.35.009.142.037.361-.048.271l-.097-.26c.027.076.084.146.072.062.018.123-.195-.332-.104.021l.097.171c.008.145.056.438-.017.37.106.253.001-.034.133.26-.153-.368.121-.021-.056-.403.15.342.106.13.25.416-.03-.086-.071-.16-.018-.13-.006-.026-.013-.06-.018-.079l.004.006-.005-.01c-.003-.014-.003-.016-.002-.003-.022-.035-.045-.079-.064-.126-.048-.204.014-.218 0-.329.036.035.024.103.067.192l-.022-.164c.068.191.169.3.154.431l.05-.007c.065.098.118.129.115.039.037.034-.017-.23.015-.074l.034-.144.018.049c.083 0 .04-.367.246-.049.007-.057.013-.124.073-.083l.067.162c.011-.068.156.135.107-.042.197.436.187.041.27.1l-.077-.217c.042-.003.056-.077.07-.182l-.073-.189c-.017-.173.153.097.208.051.022.076 0 .063-.028.023.234.4.043-.374.228-.088-.009-.075.012-.057.042-.013 0 .001-.001.004 0 .012.002.001.005 0 .007 0 .021.029.043.062.062.092-.024-.044-.045-.079-.058-.095.011-.009.022-.04.024-.095l.085.2c0-.003.001-.003.002-.008.047.069-.021-.103-.089-.253-.003-.036-.009-.08-.02-.133.139.324.009-.13.163.214-.052-.178.05-.167-.076-.531.018.047.032.067.023.073.036.034.074.065.055-.042l.107.254-.085-.365c.088.146.135.233.183.444-.047-.333.013-.138-.044-.464l.061.169c.019-.015-.034-.252.032-.119.168.302.249-.045.484.203-.214-.482.142.199-.001-.183.052.113.095.173.114.281.018-.138.165.148.083-.188.053.113.053.175.086.241-.004-.026-.02-.108.014-.041.033.065.029.101.039.154.055-.044-.079-.404-.206-.742.094.147.102.118.038-.109.054.104.118.213.094.268.028.007.197.107.093-.161.035.065.039.009.032-.024.056-.003.07.019.107-.025l-.031-.038c-.109-.332.012-.088.035-.142l.012.032c.183.2-.006-.126.188.106l-.085-.198c-.165-.438.179.225.163.038l-.063-.107c-.032-.16.312.559.361.601.021.037.015.064.018.097.175.227-.096-.269-.066-.351.066.139.131.367.178.38.064.106-.079-.506.079-.251-.054-.107-.109-.212-.117-.305.023-.054.269.375.166.014.017.029.03.057.041.083-.006-.101.037-.186-.021-.381.304.687.048-.411.303.231l.077-.071.023.067c.074.019.034-.144-.007-.306.031.04.045.103.057.138.136.095.133.064.077-.283l.09.204c-.029-.129.251.279.238.003.008.023.022.064.028.097-.004-.282.45.489.185-.284l-.012-.212c-.103-.027-.119-.334-.2-.447.014-.057.171.196.147.252l-.021-.037c.142.402.154.102.258.373.147-.082.387.074.539.037l-.137-.303.058-.002c.042.067.112.235.071.235.087.168.004-.168-.021-.235.119.1.112.37.137.37l.021-.035-.021-.033c-.026-.135-.075-.27-.026-.27.052.052.088.185.103.191.009.023.016.032.021.005l.074.003-.119-.235c-.019-.13.065-.009-.071-.275.207.411.298.066.376.188-.028-.192.013-.204.07-.201-.031-.046-.141-.318-.086-.301.196.574.168.219.354.615-.13-.261.095-.11-.094-.479.052.032.081.212.156.336.002-.251.235.076.311-.036-.026-.074-.084-.183-.102-.303l.188.354c.007-.043-.135-.438-.006-.191-.027-.062-.069-.153-.063-.183.33.293.31-.453.75.161-.078-.135-.063-.156-.044-.17-.026-.029-.063-.186-.1-.288l.182.253c-.08-.289.086-.053.004-.327l-.019.063zm-7.342 3.252c0-.003 0-.006-.002-.01.054.071.034.044.002.01zm1.965-2.346c-.018-.07.008-.041.053.029-.004.022-.019.018-.053-.029zm.685-.832c-.005-.047-.035-.187.021-.07.079.237.025.13-.021.07zm2.881.865-.031-.05c0-.066.015-.01.031.05z"/>
  <path d="m16.187 54.141.003.001-.012-.037zm-3.316 1.796c-.018-.05-.038-.091-.06-.098.022.024.041.061.06.098zm-.475 2.247c.017.048.046.116.037.124l.017-.065c-.013.015-.035-.029-.054-.059zm-.686-1.062c.004.026-.009.006-.006.033l.032.096c.021-.014.01-.096-.026-.129zm.462.507c-.061-.174-.063-.107-.076-.066.001-.002.002-.003.004-.002.073.246.072.156.072.068zm-.08-.06c-.005.011-.011.018-.021.012.029.1.016.018.021-.012zm.482.43c-.027-.041.067.224.038.155.062.227-.013-.293-.038-.155zm-.576-.903-.036-.035.08.213zm.206.061-.059-.047c.012.035.015.059.014.076.027.001.067.034.045-.029zm-.064.074c.007-.003.019-.015.019-.045-.013.001-.023.009-.019.045zm-.089-.204-.058-.048.026.042zm.599-.038c-.022-.074-.049-.115-.054-.082.008.054.002.088.034.156l.02-.074zm-.275-.314-.091-.266.016.109c.028.042.044.089.075.157zm-.036-.454c.021.074.001.148.06.197-.021-.076-.014-.231-.06-.197zm.8.318-.01.007.16.433zm.152-1.083c.027.106.075.092.097.184-.012-.118.026-.064-.093-.342-.087-.085.088.27-.004.158zm6.88-.303.06.079-.068-.138zm-.016-.329c-.003.015-.008.043-.034-.018l.1.276-.066-.258zm-5.036-.441-.085-.144.024.066c.033.071.042.072.061.078zm.418-.109-.009-.001.112.242zm.23-.456c-.019-.004-.014.058-.033.053.014-.057.159.255.033-.053z"/>
</svg>